<svg width="195" height="215" viewBox="0 0 195 215" fill="none" xmlns="http://www.w3.org/2000/svg">
<rect x="6" y="22" width="180" height="180" rx="16" fill="#03CC5E"/>
<path d="M40.0793 146.958C40.0793 146.958 31.9229 132.017 20.0465 137.993C8.17017 143.97 25.268 163.334 35.6427 167.876C46.0175 172.419 50.4882 171.761 50.4882 171.761L40.0793 146.958Z" fill="white" stroke="#263238" stroke-miterlimit="10"/>
<path d="M139.527 142.983C139.527 142.983 142.769 126.667 156.01 129.476C169.252 132.285 158.809 155.116 150.208 161.959C141.608 168.802 137.138 169.221 137.138 169.221L139.527 142.983Z" fill="white" stroke="#263238" stroke-miterlimit="10"/>
<path d="M36.4279 143.7C36.4279 143.7 36.7009 144.477 37.2469 145.852C40.4208 154.159 51.99 184.252 56.4607 193.665C61.6481 204.722 81.6808 217.063 108.403 213.179C135.124 209.294 142.53 181.981 142.53 171.581C142.53 161.182 136.592 80.6166 136.592 80.6166C136.592 80.6166 104.683 52.0184 78.5753 42.9339C52.4678 33.8494 39.9771 44.2188 30.3532 59.8179C20.7292 75.4169 15.5077 84.5014 18.4768 94.9008C21.4459 105.3 36.4279 143.7 36.4279 143.7Z" fill="white"/>
<g style="mix-blend-mode:multiply" opacity="0.5">
<path d="M46.9051 101.087C56.9044 91.3754 56.9044 71.9513 56.9044 71.9513C72.9748 81.524 90.5225 89.0406 109.017 94.274C118.42 96.6296 128.143 97.8659 137.923 97.9496C137.172 87.7595 136.66 80.6771 136.66 80.6771C136.66 80.6771 104.751 52.0789 78.6436 42.9944C52.5361 33.9099 40.0455 44.2794 30.4215 59.8784C20.7976 75.4775 15.5761 84.562 18.5452 94.9613C19.8762 99.6829 23.6643 110.142 27.4183 120.183C29.3977 118.27 38.032 109.664 46.9051 101.087Z" fill="#84E1BC"/>
</g>
<g style="mix-blend-mode:multiply" opacity="0.5">
<path d="M130.007 187.54C118.915 203.079 105.605 208.906 83.4567 203.079C63.458 197.82 48.8855 173.674 46.1895 168.922C50.08 178.814 54.1753 188.944 56.4277 193.755C61.6151 204.812 81.6479 217.154 108.37 213.269C135.092 209.384 142.497 182.071 142.497 171.672C142.497 168.205 141.849 156.73 140.961 143.312" fill="#84E1BC"/>
</g>
<path d="M36.4279 143.7C36.4279 143.7 36.7009 144.477 37.2469 145.852C40.4208 154.159 51.99 184.252 56.4607 193.665C61.6481 204.722 81.6808 217.063 108.403 213.179C135.124 209.294 142.53 181.981 142.53 171.581C142.53 161.182 136.592 80.6166 136.592 80.6166C136.592 80.6166 104.683 52.0184 78.5753 42.9339C52.4678 33.8494 39.9771 44.2188 30.3532 59.8179C20.7292 75.4169 15.5077 84.5014 18.4768 94.9008C21.4459 105.3 36.4279 143.7 36.4279 143.7Z" stroke="#263238" stroke-miterlimit="10"/>
<path d="M61.6138 109.245C61.9892 111.905 60.7947 114.236 58.9518 114.415C57.1089 114.594 55.3343 112.592 54.993 109.933C54.6518 107.273 55.8121 104.942 57.655 104.733C59.4978 104.524 61.2725 106.586 61.6138 109.245Z" fill="#263238"/>
<path d="M113.557 104.045C113.932 106.735 112.737 109.036 110.895 109.215C109.052 109.395 107.311 107.392 106.936 104.733C106.56 102.073 107.789 99.7422 109.598 99.5629C111.406 99.3836 113.215 101.386 113.557 104.045Z" fill="#263238"/>
<path d="M43.833 91.0762C43.833 91.0762 52.7402 80.0194 66.0841 83.9341" stroke="#263238" stroke-width="2" stroke-linecap="round" stroke-linejoin="round"/>
<path d="M91.3389 143.701L98.7445 137.216L93.5571 110.56" stroke="#263238" stroke-linecap="round" stroke-linejoin="round"/>
<path d="M66.084 152.785C67.6621 156.166 70.3277 159.072 73.7567 161.152C77.1858 163.231 81.2307 164.394 85.4001 164.499" stroke="#263238" stroke-linecap="round" stroke-linejoin="round"/>
<path d="M48.3044 54.0209C48.3044 54.0209 57.2116 68.9625 51.2734 77.4194C45.3353 85.8764 34.9264 87.8188 30.4898 92.361C26.0533 96.9033 27.5207 119.017 30.4898 124.844C33.0215 130.986 35.0068 137.29 36.428 143.7C36.428 143.7 17.8626 115.102 12.5388 106.675C7.21488 98.248 -6.02657 68.9625 5.71327 52.8853C17.4531 36.8081 30.2168 48.9706 34.6534 39.8861C39.09 30.8016 40.5916 12.6027 77.6881 3.48833C114.785 -5.62605 133.35 12.4533 138.537 23.0021C143.725 33.5509 162.427 41.8285 176.385 38.5712C190.343 35.314 180.855 31.4291 180.855 31.4291C180.855 31.4291 197.168 31.4291 193.448 51.5704C189.729 71.7117 169.73 84.7109 141.506 85.3684C113.283 86.0258 68.3372 79.3618 48.3044 54.0209Z" fill="#263238" stroke="#263238" stroke-miterlimit="10"/>
<path d="M45.1299 42.4555C45.1299 42.4555 78.6431 16.5468 98.0957 17.2042C117.548 17.8616 127.684 47.0874 151.061 46.5196" stroke="white" stroke-width="0.5" stroke-miterlimit="10"/>
<path d="M38.1338 46.5499L50.5903 56.1125C50.5903 56.1125 69.2922 39.7365 93.4544 47.1475C117.617 54.5586 139.424 78.5249 162.016 76.4928C184.609 74.4608 192.39 53.9609 189.318 42.3662" stroke="white" stroke-width="0.5" stroke-miterlimit="10"/>
<path d="M39.6699 51.3312C39.6699 51.3312 25.6435 47.9245 19.4323 58.1446C13.2211 68.3646 20.968 82.7086 20.968 82.7086" stroke="white" stroke-width="0.5" stroke-miterlimit="10"/>
<path d="M50.5907 56.0532C50.5907 56.0532 42.0247 56.7405 42.0247 66.9606C42.0247 77.1807 39.6699 84.0239 31.1039 87.4306C22.5379 90.8373 19.4323 93.5866 22.5379 97.6806" stroke="white" stroke-width="0.5" stroke-miterlimit="10"/>
<path d="M159.525 97.0526C156.761 90.4484 145.499 88.0876 134.817 86.8624C124.135 85.6372 97.5836 92.5402 92.9764 93.7355C89.8326 92.531 86.3991 92.0209 82.9775 92.2502C79.5559 92.4794 76.251 93.441 73.3531 95.0504C67.0737 95.0504 40.6932 94.8113 31.5129 98.3375C21.65 102.163 11.4801 106.974 10.8658 113.996C10.4221 119.286 15.9848 122.214 20.5921 123.439C22.7421 131.986 30.6255 145.165 48.6107 144.358C71.3396 143.401 81.0659 132.016 80.5199 121.796C80.1786 115.52 78.6429 104.105 77.9945 99.5627C79.8989 98.6459 82.0259 98.1404 84.1984 98.0885C86.371 98.0365 88.5263 98.4395 90.4851 99.2639C91.27 103.926 93.2836 115.042 94.8534 121.079C97.4812 131.03 110.381 139.696 132.394 135.243C149.901 131.687 153.45 117.164 152.87 108.348C157.272 106.167 161.743 102.043 159.525 97.0526ZM48.2694 138.441C30.216 139.188 27.0763 121.318 26.9398 120.511C26.8371 119.892 26.5151 119.316 26.0191 118.866C25.5232 118.416 24.8783 118.113 24.1754 118.001C22.4691 117.732 17.5206 116.297 17.6913 114.385C17.9301 111.397 23.527 107.9 34.2772 103.746C40.9356 102.078 47.8279 101.233 54.7537 101.236C60.8284 100.967 66.903 100.907 71.2372 100.937C71.9198 105.808 73.319 116.357 73.6261 122.095C74.2063 127.414 69.1896 137.574 48.406 138.441H48.2694ZM147.956 104.105C147.332 104.376 146.818 104.808 146.483 105.342C146.147 105.876 146.006 106.487 146.079 107.093C146.079 107.87 148.672 125.8 131.063 129.356C110.791 133.42 102.907 124.814 101.542 119.674C100.177 114.534 98.1296 103.597 97.3447 98.7559C101.474 97.71 107.344 96.3354 113.282 95.14C119.942 93.4845 126.836 92.6596 133.759 92.6896C145.396 94.1539 151.846 96.2756 153.007 98.995C153.996 100.878 149.696 103.418 148.092 104.105H147.956Z" fill="#263238"/>
</svg>
