<svg width="336" height="197" viewBox="0 0 336 197" fill="none" xmlns="http://www.w3.org/2000/svg">
<g filter="url(#filter0_d_85_2)">
<rect x="4" width="328" height="189" rx="12" fill="url(#paint0_linear_85_2)"/>
</g>
<path d="M119.546 78.5318C120.119 78.1858 120.736 77.9172 121.379 77.7329L121.755 75.9196L124.818 75.8677L125.258 77.665C125.907 77.8261 126.533 78.0719 127.119 78.396L128.665 77.3814L130.869 79.5103L129.911 81.108C130.257 81.6812 130.525 82.2976 130.71 82.9413L132.523 83.3167L132.575 86.3802L130.778 86.8196C130.62 87.4705 130.374 88.0967 130.047 88.6808L131.061 90.2266L128.932 92.4313L127.335 91.4727C126.763 91.8187 126.148 92.0873 125.505 92.2716L125.126 94.0849L122.062 94.1368L121.623 92.3395C120.973 92.1819 120.348 91.936 119.766 91.6085L118.216 92.6231L116.011 90.4942L116.974 88.8965C116.626 88.3255 116.358 87.7102 116.175 87.0672L114.354 86.6838L114.302 83.6203L116.099 83.1809C116.26 82.5325 116.506 81.908 116.83 81.3237L115.816 79.7739L117.944 77.5692L119.542 78.5318H119.546ZM121.18 82.6098C120.727 83.0772 120.424 83.6682 120.308 84.308C120.192 84.9479 120.268 85.6078 120.527 86.2043C120.786 86.8009 121.216 87.3072 121.763 87.6592C122.31 88.0112 122.949 88.1932 123.599 88.182C124.249 88.1708 124.881 87.967 125.416 87.5964C125.95 87.2258 126.362 86.705 126.601 86.0999C126.839 85.4948 126.893 84.8327 126.754 84.1972C126.616 83.5617 126.293 82.9815 125.825 82.5299C125.197 81.9248 124.355 81.5933 123.484 81.6083C122.612 81.6233 121.782 81.9834 121.176 82.6098H121.18Z" fill="#E0E0E0"/>
<path d="M92.6424 108.312H86.5234V127.428H92.6424V108.312Z" fill="#F5F5F5"/>
<path d="M101.781 112.677H95.6621V127.428H101.781V112.677Z" fill="#F5F5F5"/>
<path d="M110.24 118.669H104.121V127.428H110.24V118.669Z" fill="#F5F5F5"/>
<path d="M242.678 162.28C242.677 160.393 242.17 158.541 241.209 156.916C240.248 155.292 238.868 153.956 237.214 153.047C235.56 152.137 233.693 151.689 231.806 151.748C229.92 151.808 228.084 152.372 226.49 153.383C224.897 154.394 223.604 155.815 222.747 157.496C221.889 159.177 221.499 161.058 221.617 162.942C221.735 164.825 222.357 166.643 223.417 168.204C224.477 169.766 225.937 171.014 227.644 171.818V174.479H236.882C236.882 174.479 236.938 172.985 236.962 171.651C238.684 170.764 240.128 169.421 241.136 167.768C242.144 166.115 242.678 164.217 242.678 162.28Z" fill="#F5F5F5"/>
<path d="M236.176 176.192H228.24C228.161 176.192 228.084 176.177 228.012 176.147C227.94 176.117 227.874 176.073 227.819 176.018C227.764 175.963 227.72 175.897 227.69 175.825C227.66 175.753 227.645 175.675 227.645 175.597C227.645 175.519 227.66 175.442 227.69 175.369C227.72 175.297 227.764 175.232 227.819 175.176C227.874 175.121 227.94 175.077 228.012 175.047C228.084 175.017 228.161 175.002 228.24 175.002H236.176C236.334 175.002 236.485 175.065 236.597 175.176C236.708 175.288 236.771 175.439 236.771 175.597C236.771 175.755 236.708 175.906 236.597 176.018C236.485 176.13 236.334 176.192 236.176 176.192Z" fill="#E0E0E0"/>
<path d="M236.176 176.708H228.24C228.081 176.708 227.928 176.771 227.816 176.883C227.704 176.995 227.641 177.148 227.641 177.307C227.641 177.466 227.704 177.618 227.816 177.73C227.928 177.843 228.081 177.906 228.24 177.906H229.11L230.269 180.107C230.334 180.228 230.432 180.33 230.551 180.4C230.67 180.471 230.806 180.507 230.944 180.506H233.78C233.918 180.507 234.055 180.471 234.175 180.401C234.294 180.33 234.392 180.229 234.459 180.107L235.581 177.914H236.176C236.335 177.914 236.487 177.851 236.6 177.738C236.712 177.626 236.775 177.474 236.775 177.315C236.775 177.156 236.712 177.003 236.6 176.891C236.487 176.779 236.335 176.716 236.176 176.716V176.708Z" fill="#E0E0E0"/>
<path d="M234.31 180.278C234.31 180.278 234.103 180.206 233.767 180.111C232.888 179.856 231.951 179.883 231.087 180.186C230.912 180.262 230.733 180.329 230.552 180.386C230.701 180.262 230.871 180.166 231.055 180.103C231.487 179.923 231.949 179.824 232.417 179.811C232.885 179.796 233.353 179.868 233.795 180.023C233.981 180.075 234.156 180.162 234.31 180.278Z" fill="#FAFAFA"/>
<path d="M235.597 177.925C235.597 177.961 234.163 177.989 232.401 177.989C230.64 177.989 229.206 177.961 229.206 177.925C229.206 177.89 230.64 177.862 232.401 177.862C234.163 177.862 235.597 177.89 235.597 177.925Z" fill="#FAFAFA"/>
<path d="M235.101 178.864C234.845 178.917 234.584 178.944 234.323 178.944C233.839 178.976 233.168 179.004 232.429 179.016C231.69 179.028 231.019 179.016 230.536 179.016C230.269 179.023 230.001 179.003 229.737 178.956C230.002 178.924 230.269 178.914 230.536 178.924L232.429 178.9L234.319 178.868C234.579 178.849 234.841 178.848 235.101 178.864Z" fill="#FAFAFA"/>
<path d="M241.061 159.109C241.157 159.276 241.228 159.457 241.273 159.644C241.426 160.143 241.533 160.655 241.592 161.174C241.799 162.904 241.527 164.657 240.805 166.243C240.083 167.829 238.939 169.185 237.498 170.165C237.067 170.461 236.61 170.717 236.132 170.928C235.96 171.016 235.778 171.082 235.589 171.123C235.589 171.076 236.34 170.788 237.394 170.021C238.775 169.027 239.872 167.69 240.576 166.142C241.281 164.593 241.569 162.888 241.412 161.194C241.331 160.494 241.214 159.798 241.061 159.109Z" fill="white"/>
<path d="M234.207 153.981C233.995 153.258 233.161 152.783 232.142 152.763C230.455 152.904 228.818 153.414 227.349 154.256C226.355 154.842 225.491 155.625 224.811 156.557C224.131 157.489 223.649 158.551 223.395 159.677C223.282 160.092 223.267 160.528 223.351 160.951C223.397 161.17 223.498 161.375 223.645 161.544C223.792 161.714 223.979 161.844 224.19 161.921C224.399 161.971 224.617 161.969 224.825 161.917C225.034 161.865 225.227 161.764 225.388 161.622C225.708 161.334 225.971 160.988 226.163 160.603C226.593 159.721 227.072 158.864 227.597 158.035C228.123 157.189 228.951 156.577 229.913 156.321C230.545 156.182 231.112 156.17 231.751 156.034C232.55 155.862 233.045 155.878 233.596 155.535C233.822 155.349 233.997 155.109 234.104 154.837C234.211 154.565 234.247 154.271 234.207 153.981Z" fill="white"/>
<path d="M225.499 164.274C225.499 164.511 225.429 164.743 225.297 164.94C225.165 165.137 224.978 165.29 224.759 165.381C224.54 165.472 224.299 165.495 224.067 165.449C223.835 165.403 223.621 165.289 223.453 165.121C223.286 164.954 223.172 164.74 223.126 164.508C223.079 164.275 223.103 164.034 223.194 163.815C223.284 163.596 223.438 163.409 223.635 163.278C223.832 163.146 224.064 163.076 224.301 163.076C224.619 163.076 224.923 163.202 225.148 163.427C225.373 163.651 225.499 163.956 225.499 164.274Z" fill="white"/>
<path d="M235.405 174.511C235.405 174.511 235.377 174.371 235.341 174.111C235.306 173.852 235.25 173.412 235.19 172.913C235.058 171.843 234.878 170.349 234.658 168.52C234.563 167.585 234.407 166.586 234.327 165.472C234.315 165.17 234.423 164.876 234.627 164.653C234.737 164.531 234.888 164.454 235.051 164.436C235.214 164.417 235.379 164.459 235.513 164.553C235.76 164.752 235.922 165.038 235.965 165.352C235.999 165.669 235.958 165.989 235.845 166.287C235.602 166.903 235.127 167.399 234.523 167.669C234.207 167.812 233.863 167.881 233.517 167.87C233.17 167.859 232.831 167.768 232.526 167.605C231.895 167.27 231.416 166.707 231.188 166.031C231.065 165.687 231.021 165.32 231.06 164.957C231.084 164.767 231.153 164.585 231.259 164.426C231.318 164.342 231.395 164.273 231.484 164.223C231.573 164.173 231.673 164.144 231.775 164.138C231.876 164.138 231.976 164.159 232.069 164.199C232.162 164.24 232.245 164.299 232.314 164.374C232.448 164.506 232.555 164.663 232.629 164.837C232.764 165.173 232.831 165.533 232.825 165.895C232.843 166.25 232.787 166.604 232.661 166.936C232.535 167.268 232.342 167.571 232.094 167.825C231.85 168.072 231.542 168.247 231.204 168.329C230.866 168.411 230.511 168.397 230.181 168.288C229.585 168.03 229.094 167.578 228.787 167.006C228.632 166.736 228.509 166.449 228.42 166.151C228.316 165.858 228.283 165.544 228.324 165.236C228.35 165.075 228.426 164.926 228.539 164.809C228.605 164.751 228.688 164.715 228.775 164.705C228.862 164.696 228.95 164.714 229.027 164.757C229.251 164.954 229.393 165.227 229.426 165.524C229.712 166.508 229.901 167.518 229.989 168.539C230.119 170.015 230.042 171.502 229.762 172.957C229.665 173.489 229.531 174.013 229.362 174.527C229.362 174.527 229.386 174.383 229.454 174.127C229.522 173.872 229.61 173.464 229.702 172.949C229.957 171.499 230.013 170.021 229.869 168.555C229.775 167.546 229.582 166.548 229.294 165.576C229.218 165.316 229.147 165.025 228.943 164.901C228.894 164.873 228.838 164.862 228.782 164.867C228.726 164.873 228.674 164.896 228.631 164.933C228.542 165.027 228.485 165.147 228.468 165.276C228.431 165.558 228.464 165.845 228.563 166.111C228.649 166.398 228.769 166.674 228.919 166.934C229.206 167.481 229.671 167.913 230.237 168.16C230.538 168.257 230.86 168.268 231.167 168.192C231.474 168.116 231.754 167.955 231.974 167.729C232.205 167.492 232.384 167.21 232.5 166.901C232.616 166.591 232.667 166.261 232.649 165.931C232.653 165.592 232.591 165.256 232.466 164.941C232.338 164.645 232.086 164.342 231.783 164.35C231.479 164.358 231.275 164.693 231.235 165.017C231.203 165.352 231.244 165.69 231.355 166.007C231.571 166.64 232.019 167.167 232.609 167.481C232.889 167.632 233.199 167.716 233.517 167.727C233.834 167.738 234.149 167.676 234.439 167.545C235.106 167.685 235.497 166.934 235.677 166.263C235.782 165.99 235.822 165.695 235.793 165.404C235.757 165.125 235.614 164.871 235.393 164.697C235.289 164.624 235.161 164.591 235.035 164.606C234.908 164.621 234.791 164.682 234.706 164.777C234.531 164.973 234.438 165.229 234.447 165.492C234.523 166.566 234.666 167.597 234.758 168.52C234.954 170.353 235.114 171.847 235.23 172.913C235.278 173.408 235.317 173.808 235.349 174.111C235.401 174.367 235.405 174.511 235.405 174.511Z" fill="#E0E0E0"/>
<path d="M236.975 28.3855L241.636 28.8409C241.636 28.8409 242.015 24.9266 246.089 25.2461C246.876 25.2937 247.628 25.5856 248.241 26.0811C248.854 26.5765 249.297 27.2509 249.508 28.0101C249.695 28.6449 249.728 29.3147 249.607 29.965C249.485 30.6154 249.212 31.2278 248.809 31.7526C247.891 32.9788 246.013 34.1251 242.942 33.2664L241.931 43.6511L246.561 44.0984L247.16 37.9435C247.16 37.9435 253.75 36.901 254.461 29.7795C255.124 22.9615 248.925 20.7607 245.746 20.4532C243.765 20.2575 237.686 20.1576 236.975 28.3855Z" fill="#F5F5F5"/>
<path d="M241.71 45.81L241.285 50.179L245.96 50.634L246.385 46.2651L241.71 45.81Z" fill="#F5F5F5"/>
<path d="M235.117 28.2057L239.77 28.661C239.77 28.661 240.17 24.7468 244.228 25.0663C245.014 25.1153 245.765 25.4077 246.377 25.903C246.989 26.3983 247.431 27.0719 247.643 27.8302C247.833 28.4643 247.87 29.1343 247.752 29.7856C247.633 30.4368 247.361 31.0506 246.96 31.5767C246.041 32.8029 244.196 33.8174 241.108 32.9587L240.086 43.4672L244.695 43.9146L245.294 37.7596C245.294 37.7596 251.909 36.7172 252.599 29.6076C253.263 22.7936 247.307 20.6168 244.691 20.3612C242.69 20.1535 235.828 19.9738 235.117 28.2057Z" fill="#EBEBEB"/>
<path d="M239.847 45.6277L239.422 49.9966L244.097 50.4517L244.522 46.0828L239.847 45.6277Z" fill="#EBEBEB"/>
<path d="M167.101 17.1658C167.688 16.8456 168.316 16.6052 168.966 16.4508L169.426 14.6575L172.489 14.7453L172.849 16.5587C173.488 16.7439 174.1 17.0125 174.67 17.3575L176.264 16.4269L178.368 18.6516L177.338 20.1893C177.657 20.7767 177.896 21.404 178.049 22.0546L179.858 22.5179L179.774 25.5814L177.957 25.9409C177.773 26.5807 177.504 27.1932 177.158 27.7622L178.101 29.3599L175.864 31.4608L174.326 30.4303C173.739 30.7498 173.112 30.989 172.461 31.1412L172.002 32.9386L168.942 32.8507L168.583 31.0334C167.94 30.8526 167.326 30.5837 166.758 30.2346L165.16 31.1812L163.055 28.9565L164.085 27.4187C163.765 26.8304 163.524 26.2017 163.371 25.5495L161.577 25.0941L161.661 22.0306L163.478 21.6712C163.663 21.0313 163.931 20.4188 164.277 19.8498L163.335 18.2522L165.559 16.1473L167.097 17.1778L167.101 17.1658ZM168.547 21.3157C168.074 21.7625 167.745 22.3394 167.601 22.9733C167.456 23.6073 167.503 24.2699 167.735 24.8773C167.967 25.4848 168.374 26.0097 168.905 26.3857C169.435 26.7618 170.065 26.972 170.715 26.9899C171.365 27.0078 172.006 26.8325 172.556 26.4862C173.107 26.1399 173.542 25.6382 173.807 25.0444C174.072 24.4507 174.155 23.7916 174.046 23.1507C173.936 22.5097 173.639 21.9156 173.192 21.4435C172.593 20.8109 171.767 20.442 170.896 20.4181C170.025 20.3941 169.18 20.717 168.547 21.3157Z" fill="#E0E0E0"/>
<path d="M149.027 14.8972C149.434 14.6513 149.872 14.4606 150.329 14.33L150.597 13.0399L152.782 13L153.093 14.2821C153.556 14.3964 154.002 14.571 154.419 14.8014L155.522 14.0784L157.091 15.5962L156.408 16.7225C156.653 17.1301 156.844 17.5678 156.976 18.0246L158.266 18.2922L158.302 20.473L157.023 20.7886C156.91 21.2508 156.734 21.6956 156.5 22.1106L157.223 23.217L155.709 24.7867L154.583 24.1037C154.175 24.3505 153.736 24.5413 153.277 24.6709L153.009 25.961L150.829 26.0009L150.513 24.7188C150.05 24.6063 149.604 24.4316 149.187 24.1995L148.085 24.9225L146.515 23.4047L147.202 22.2784C146.954 21.8722 146.764 21.4341 146.635 20.9763L145.341 20.7047L145.305 18.5239L146.583 18.2083C146.698 17.7466 146.874 17.3021 147.106 16.8863L146.383 15.7839L147.905 14.2142L149.035 14.8972H149.027ZM150.19 17.8049C149.868 18.138 149.652 18.559 149.57 19.0147C149.487 19.4704 149.542 19.9403 149.727 20.3649C149.912 20.7895 150.218 21.1497 150.608 21.4C150.997 21.6504 151.452 21.7795 151.915 21.7711C152.378 21.7627 152.829 21.6172 153.209 21.3529C153.589 21.0887 153.882 20.7175 154.052 20.2865C154.221 19.8555 154.259 19.384 154.16 18.9316C154.061 18.4792 153.83 18.0662 153.497 17.745C153.276 17.5315 153.015 17.3637 152.729 17.2512C152.443 17.1386 152.138 17.0835 151.831 17.0891C151.523 17.0947 151.22 17.1607 150.939 17.2836C150.657 17.4064 150.403 17.5836 150.19 17.8049Z" fill="#F5F5F5"/>
<path d="M185.45 78.0644C185.858 77.8201 186.296 77.6295 186.752 77.4972L187.024 76.2071L189.205 76.1711L189.52 77.4493C189.982 77.5632 190.427 77.7392 190.842 77.9725L191.945 77.2496L193.514 78.7633L192.831 79.8897C193.076 80.2984 193.267 80.7375 193.398 81.1958L194.689 81.4634L194.728 83.6482L193.446 83.9597C193.332 84.4225 193.157 84.8684 192.927 85.2857L193.65 86.3881L192.132 87.9578L191.006 87.2748C190.598 87.5202 190.158 87.7096 189.7 87.838L189.432 89.1321L187.251 89.168L186.936 87.8899C186.474 87.7742 186.03 87.5983 185.614 87.3667L184.511 88.0896L182.942 86.5759L183.625 85.4495C183.378 85.0416 183.187 84.6023 183.058 84.1434L181.767 83.8758L181.728 81.691L183.01 81.3795C183.122 80.9161 183.297 80.47 183.529 80.0534L182.806 78.9511L184.324 77.3814L185.45 78.0644ZM186.612 80.9721C186.291 81.3054 186.076 81.7264 185.994 82.1819C185.912 82.6374 185.967 83.107 186.152 83.5313C186.337 83.9555 186.644 84.3155 187.033 84.5655C187.423 84.8156 187.877 84.9446 188.34 84.9363C188.803 84.9279 189.253 84.7825 189.633 84.5185C190.013 84.2545 190.306 83.8837 190.476 83.453C190.645 83.0224 190.683 82.5511 190.585 82.0988C190.487 81.6466 190.256 81.2336 189.924 80.9122C189.702 80.6955 189.439 80.5251 189.151 80.4107C188.863 80.2963 188.555 80.2403 188.245 80.2458C187.936 80.2514 187.63 80.3185 187.346 80.4432C187.062 80.5678 186.806 80.7476 186.592 80.9721H186.612Z" fill="#F5F5F5"/>
<path d="M252.479 188.838C252.479 188.898 214.599 188.942 167.879 188.942C121.16 188.942 83.2715 188.898 83.2715 188.838C83.2715 188.778 121.144 188.734 167.875 188.734C214.607 188.734 252.479 188.782 252.479 188.838Z" fill="#263238"/>
<path d="M86.376 173.344L89.4275 188.778L105.292 188.766L108.643 173.6L86.376 173.344Z" fill="#03CC5E"/>
<path d="M84.5547 171V173.153C84.5552 173.326 84.5898 173.497 84.6565 173.657C84.7233 173.816 84.8208 173.961 84.9436 174.083C85.0663 174.205 85.2119 174.302 85.372 174.368C85.5322 174.434 85.7037 174.467 85.8767 174.467H108.843C109.016 174.467 109.187 174.434 109.347 174.368C109.507 174.302 109.652 174.205 109.775 174.083C109.897 173.961 109.994 173.816 110.061 173.656C110.127 173.497 110.161 173.325 110.161 173.153V171C110.161 170.682 110.035 170.377 109.81 170.152C109.585 169.928 109.281 169.802 108.963 169.802H85.7489C85.4318 169.803 85.1281 169.929 84.9042 170.154C84.6804 170.378 84.5547 170.683 84.5547 171Z" fill="#03CC5E"/>
<g opacity="0.4">
<path d="M86.5479 174.463L86.7356 175.529L107.928 177.031L108.464 174.463H86.5479Z" fill="black"/>
</g>
<path d="M106.526 181.82C106.526 181.876 102.42 181.924 97.3398 181.924C92.2593 181.924 88.1533 181.876 88.1533 181.82C88.1533 181.764 92.2553 181.716 97.3398 181.716C102.424 181.716 106.526 181.76 106.526 181.82Z" fill="white"/>
<path d="M106.647 183.102C106.647 183.158 102.545 183.206 97.4604 183.206C92.3759 183.206 88.2979 183.158 88.2979 183.102C88.2979 183.046 92.4198 182.982 97.4804 182.982C102.541 182.982 106.647 183.042 106.647 183.102Z" fill="white"/>
<path d="M88.0136 169.821C88.0136 169.821 79.0828 159.572 80.0773 159.201C81.0718 158.83 89.0042 164.513 89.0042 164.513C89.0042 164.513 82.1862 149.335 83.5482 148.209C84.9102 147.083 92.1036 161.669 92.1036 161.669C92.1036 161.669 90.9893 140.429 92.1036 140.185C93.218 139.941 97.296 161.426 97.296 161.426C97.296 161.426 103.375 141.787 105.109 141.787C106.842 141.787 103.251 160.683 103.251 160.683C103.251 160.683 110.441 148.581 111.559 150.186C112.677 151.792 106.475 164.881 106.475 164.881C106.475 164.881 115.553 157.348 115.913 158.338C116.272 159.329 106.119 169.821 106.119 169.821H88.0136Z" fill="#455A64"/>
<path d="M86.7676 154.384C86.8275 154.356 88.4132 157.739 90.3024 161.937C92.1916 166.135 93.6814 169.562 93.6175 169.59C93.5536 169.618 91.972 166.235 90.0827 162.037C88.1935 157.839 86.7037 154.412 86.7676 154.384Z" fill="#263238"/>
<path d="M93.9841 156.273C94.052 156.273 94.3156 159.249 94.5712 162.932C94.8268 166.614 94.9706 169.598 94.9147 169.602C94.8588 169.606 94.5832 166.63 94.3276 162.948C94.0719 159.265 93.9122 156.277 93.9841 156.273Z" fill="#263238"/>
<path d="M103.93 146.759C103.923 146.842 103.905 146.924 103.878 147.003C103.822 147.183 103.759 147.402 103.679 147.678C103.495 148.297 103.239 149.132 102.936 150.15C102.305 152.239 101.458 155.135 100.595 158.35C99.7325 161.566 99.0215 164.493 98.5223 166.618L97.9311 169.134C97.8632 169.41 97.8073 169.634 97.7634 169.817C97.7489 169.899 97.7234 169.978 97.6875 170.053C97.6876 169.97 97.697 169.887 97.7155 169.805C97.7474 169.622 97.7874 169.406 97.8393 169.114C97.9471 168.515 98.1229 167.649 98.3545 166.582C98.8099 164.445 99.4968 161.506 100.352 158.286C101.206 155.067 102.089 152.179 102.748 150.102C103.084 149.06 103.367 148.225 103.571 147.646L103.811 146.987C103.84 146.906 103.88 146.829 103.93 146.759Z" fill="#263238"/>
<path d="M108.232 157.711C108.288 157.747 106.542 160.336 104.337 163.491C102.133 166.646 100.299 169.171 100.243 169.131C100.188 169.091 101.933 166.502 104.138 163.351C106.343 160.2 108.176 157.671 108.232 157.711Z" fill="#263238"/>
<path d="M91.0252 169.606C90.7343 169.459 90.4655 169.272 90.2263 169.051C89.631 168.56 89.063 168.038 88.5248 167.485C87.9847 166.937 87.4753 166.36 86.9991 165.756C86.7814 165.518 86.601 165.249 86.4639 164.957C86.5198 164.913 87.4464 166.031 88.7006 167.309C89.9547 168.587 91.0731 169.55 91.0252 169.606Z" fill="#263238"/>
<path d="M96.4497 165.532C96.5176 165.532 96.6574 166.474 96.7652 167.645C96.8731 168.815 96.905 169.778 96.8371 169.781C96.7692 169.785 96.6294 168.843 96.5216 167.669C96.4137 166.494 96.3818 165.54 96.4497 165.532Z" fill="#263238"/>
<path d="M86.2191 30.1709C86.6595 27.9244 87.5617 25.794 88.8687 23.9145C90.1756 22.0351 91.8587 20.4476 93.8113 19.2528C95.764 18.0579 97.9435 17.2817 100.212 16.9734C102.48 16.665 104.788 16.8313 106.989 17.4615C115.919 20.0338 121.048 29.8074 118.08 38.6304C117.128 41.4754 115.413 44.0048 113.124 45.9437C113.044 46.012 112.962 46.076 112.876 46.1354H112.852C109.003 48.8234 104.302 50.0058 99.6394 49.4585C98.1283 49.2797 96.6543 48.8674 95.2698 48.2363C91.9777 46.6476 89.3043 44.0135 87.667 40.7454C86.0296 37.4772 85.5205 33.7589 86.2191 30.1709Z" fill="white"/>
<path d="M86.2194 30.1707C86.2194 30.1707 86.2194 30.2586 86.1875 30.4343C86.1555 30.6101 86.1276 30.8737 86.0796 31.2092C85.9589 32.2056 85.9228 33.2103 85.9718 34.2128C86.0803 35.7971 86.4069 37.3589 86.9424 38.854C87.6579 40.8344 88.7421 42.6613 90.1377 44.2381C90.532 44.6856 90.9535 45.1085 91.3998 45.5042C91.8575 45.932 92.3403 46.3321 92.8457 46.7024C93.0973 46.8942 93.3769 47.0539 93.6445 47.2337L94.0439 47.4973C94.1837 47.5811 94.3315 47.653 94.4753 47.7329L95.362 48.1962C95.6656 48.336 95.9811 48.4678 96.3006 48.5957C99.0711 49.5489 102.038 49.7839 104.924 49.2787C106.481 49.0155 107.999 48.5621 109.445 47.9286C110.193 47.6055 110.92 47.236 111.622 46.8223C111.978 46.6146 112.325 46.3909 112.673 46.1632C113.013 45.9254 113.333 45.6581 113.627 45.3644C116.182 42.9969 117.902 39.8669 118.532 36.4415C118.867 34.7166 118.907 32.9472 118.648 31.2092C118.528 30.3601 118.348 29.5205 118.109 28.6969C117.965 28.2975 117.825 27.8981 117.685 27.4987C117.617 27.2989 117.536 27.1041 117.442 26.9155L117.178 26.3444C116.479 24.8549 115.556 23.4811 114.442 22.2703L114.043 21.819L113.603 21.4196C113.304 21.156 113.028 20.8684 112.72 20.6208C112.115 20.1301 111.476 19.683 110.807 19.2827C108.301 17.7633 105.427 16.9567 102.496 16.9502C101.828 16.9423 101.161 16.9783 100.498 17.058C100.173 17.0862 99.8502 17.1369 99.5319 17.2098L98.5853 17.3895C97.9782 17.5732 97.387 17.729 96.7999 17.9367L95.9611 18.2802C95.6858 18.3805 95.4187 18.502 95.1623 18.6437C93.2767 19.5751 91.583 20.8528 90.1696 22.4101C89.6027 23.0578 89.0847 23.7466 88.6199 24.4711L88.3004 24.9624C88.1866 25.1049 88.0838 25.2557 87.9928 25.4137L87.5255 26.3364C87.4536 26.4841 87.3777 26.6239 87.3138 26.7637L87.1541 27.1631L86.8665 27.922C86.7114 28.3114 86.5859 28.712 86.491 29.1203C86.3992 29.4478 86.3313 29.6994 86.2833 29.8752C86.2354 30.0509 86.2075 30.1348 86.2075 30.1348C86.2075 30.1348 86.2075 30.0429 86.2634 29.8712L86.4471 29.1083C86.5371 28.6927 86.6572 28.2842 86.8066 27.8861L87.0862 27.1192C87.1381 26.9834 87.19 26.8436 87.2419 26.6958C87.2939 26.5481 87.3817 26.4162 87.4536 26.2685L87.913 25.3338C87.9918 25.1656 88.0839 25.004 88.1885 24.8505L88.5041 24.3553C88.9656 23.622 89.4823 22.925 90.0498 22.2703C91.4668 20.6921 93.1688 19.3953 95.0664 18.448C95.3236 18.3054 95.5905 18.1813 95.8653 18.0765L96.708 17.729C97.2872 17.5173 97.9063 17.3576 98.5094 17.1698L99.464 16.9861C99.7866 16.9128 100.113 16.8594 100.443 16.8263C104.074 16.4026 107.745 17.1858 110.887 19.0551C111.564 19.4593 112.211 19.9104 112.824 20.4051C113.136 20.6487 113.415 20.9403 113.719 21.2039L114.162 21.6033L114.562 22.0586C115.69 23.2837 116.625 24.6737 117.334 26.1806L117.601 26.7597C117.698 26.9507 117.781 27.1482 117.849 27.3509C117.989 27.7503 118.133 28.1497 118.276 28.5491C118.52 29.3829 118.703 30.2332 118.824 31.0934C119.109 32.8723 119.084 34.6874 118.748 36.4575C118.11 39.9277 116.367 43.0986 113.779 45.4962C113.475 45.7901 113.146 46.0574 112.796 46.295C112.445 46.5267 112.097 46.7544 111.734 46.9581C109.648 48.1883 107.355 49.0275 104.968 49.4344C102.049 49.9369 99.0512 49.6923 96.2527 48.7235C95.9292 48.6036 95.6096 48.4718 95.3021 48.3241L94.3834 47.8607C94.2397 47.7809 94.0879 47.709 93.9481 47.6251L93.5487 47.3535C93.2771 47.1737 92.9935 47.01 92.7498 46.8183C92.243 46.4465 91.7577 46.0465 91.296 45.62C90.8481 45.2176 90.4252 44.7881 90.0298 44.3339C88.6278 42.7408 87.5432 40.8943 86.8345 38.8939C86.3059 37.386 85.99 35.8119 85.8959 34.2168C85.8536 33.2108 85.9004 32.203 86.0357 31.2052C86.0916 30.8697 86.1356 30.6141 86.1675 30.4303C86.1995 30.2466 86.2194 30.1707 86.2194 30.1707Z" fill="#263238"/>
<path d="M115 49.4384C115.024 49.4384 115 49.1868 115.128 48.7594C115.298 48.1573 115.661 47.6279 116.163 47.2536C116.529 46.9819 116.958 46.8057 117.41 46.7409C117.862 46.676 118.323 46.7246 118.751 46.8822C119.256 47.0653 119.695 47.3966 120.009 47.8328C120.347 48.2968 120.53 48.8562 120.53 49.4304C120.53 50.0047 120.347 50.5641 120.009 51.0281C119.796 51.3208 119.526 51.5683 119.217 51.7561C118.907 51.9439 118.563 52.0684 118.205 52.1222C117.847 52.1761 117.481 52.1583 117.13 52.0699C116.779 51.9815 116.449 51.8243 116.159 51.6072C115.658 51.2344 115.294 50.7064 115.124 50.1054C115.008 49.6781 115.02 49.4225 114.996 49.4264C114.987 49.486 114.987 49.5467 114.996 49.6062C114.996 49.781 115.016 49.9553 115.056 50.1254C115.201 50.7608 115.562 51.3259 116.079 51.7231C116.636 52.1526 117.33 52.3661 118.033 52.3241C118.735 52.282 119.399 51.9873 119.901 51.4943C120.403 51.0014 120.71 50.3434 120.765 49.6418C120.82 48.9402 120.62 48.2423 120.201 47.677C119.86 47.2074 119.383 46.8533 118.835 46.6625C118.376 46.498 117.882 46.452 117.4 46.5288C116.919 46.6056 116.464 46.8027 116.079 47.1019C115.562 47.499 115.201 48.0641 115.056 48.6995C115.016 48.8697 114.996 49.0439 114.996 49.2188C114.984 49.2916 114.986 49.3661 115 49.4384Z" fill="#263238"/>
<path d="M98.9811 33.2023C98.9803 33.4992 98.8916 33.7891 98.7261 34.0356C98.5606 34.282 98.3258 34.4739 98.0513 34.5869C97.7768 34.7 97.475 34.7292 97.1839 34.6708C96.8928 34.6124 96.6256 34.469 96.416 34.2588C96.2064 34.0487 96.0637 33.7811 96.0061 33.4898C95.9485 33.1986 95.9785 32.8969 96.0922 32.6227C96.206 32.3485 96.3985 32.1142 96.6454 31.9494C96.8923 31.7845 97.1825 31.6965 97.4793 31.6965C97.6769 31.6965 97.8725 31.7355 98.055 31.8112C98.2374 31.887 98.4032 31.9979 98.5427 32.1378C98.6822 32.2777 98.7927 32.4437 98.868 32.6264C98.9432 32.809 98.9816 33.0048 98.9811 33.2023Z" fill="#263238"/>
<path d="M103.926 33.2023C103.926 33.5001 103.837 33.7913 103.672 34.0389C103.506 34.2865 103.271 34.4795 102.996 34.5935C102.721 34.7075 102.418 34.7373 102.126 34.6792C101.834 34.6211 101.566 34.4777 101.355 34.2671C101.145 34.0565 101.001 33.7882 100.943 33.4961C100.885 33.204 100.915 32.9012 101.029 32.6261C101.143 32.3509 101.336 32.1158 101.583 31.9503C101.831 31.7848 102.122 31.6965 102.42 31.6965C102.618 31.696 102.814 31.7346 102.997 31.8101C103.18 31.8856 103.346 31.9965 103.486 32.1364C103.626 32.2763 103.737 32.4425 103.812 32.6255C103.888 32.8084 103.926 33.0044 103.926 33.2023Z" fill="#263238"/>
<path d="M108.867 33.2023C108.867 33.5001 108.779 33.7913 108.613 34.0389C108.448 34.2865 108.213 34.4795 107.937 34.5935C107.662 34.7075 107.36 34.7373 107.067 34.6792C106.775 34.6211 106.507 34.4777 106.297 34.2671C106.086 34.0565 105.943 33.7882 105.884 33.4961C105.826 33.204 105.856 32.9012 105.97 32.6261C106.084 32.3509 106.277 32.1158 106.525 31.9503C106.772 31.7848 107.063 31.6965 107.361 31.6965C107.559 31.696 107.755 31.7346 107.938 31.8101C108.121 31.8856 108.287 31.9965 108.427 32.1364C108.567 32.2763 108.678 32.4425 108.753 32.6255C108.829 32.8084 108.868 33.0044 108.867 33.2023Z" fill="#263238"/>
<path d="M252.045 123.254H214.384C212.198 123.254 210.426 125.026 210.426 127.212V138.044C210.426 140.23 212.198 142.002 214.384 142.002H252.045C254.231 142.002 256.003 140.23 256.003 138.044V127.212C256.003 125.026 254.231 123.254 252.045 123.254Z" fill="white"/>
<path d="M252.044 142.002C252.451 141.982 252.853 141.911 253.242 141.791C253.802 141.606 254.312 141.297 254.736 140.888C255.16 140.478 255.486 139.979 255.691 139.426C255.836 139.05 255.917 138.651 255.93 138.248C255.95 137.829 255.93 137.373 255.93 136.906C255.93 135.969 255.93 134.951 255.93 133.854C255.93 132.757 255.93 131.588 255.93 130.348C255.93 129.724 255.93 129.089 255.93 128.43C255.956 127.764 255.928 127.096 255.846 126.433C255.7 125.738 255.367 125.096 254.883 124.575C254.399 124.055 253.782 123.677 253.098 123.482C252.353 123.332 251.592 123.284 250.834 123.338H248.437H238.088H214.375C213.868 123.337 213.366 123.437 212.897 123.631C212.428 123.826 212.003 124.111 211.644 124.47C211.286 124.829 211.003 125.256 210.81 125.725C210.617 126.194 210.519 126.697 210.521 127.204C210.521 129.252 210.521 131.269 210.521 133.255V137.649C210.496 138.119 210.543 138.591 210.661 139.047C210.914 139.944 211.481 140.721 212.258 141.236C212.635 141.488 213.055 141.669 213.497 141.771C213.938 141.863 214.389 141.899 214.839 141.879L234.206 141.903L247.263 141.935L250.814 141.955H251.736H252.052H251.736H250.814H247.263L234.206 141.99L214.839 142.01C214.374 142.032 213.908 141.995 213.453 141.899C212.988 141.793 212.547 141.603 212.151 141.339C211.337 140.797 210.744 139.981 210.481 139.039C210.359 138.566 210.309 138.077 210.333 137.589C210.333 137.106 210.333 136.622 210.333 136.135V127.224C210.332 126.69 210.436 126.16 210.639 125.666C210.842 125.172 211.141 124.723 211.519 124.344C211.896 123.966 212.344 123.665 212.838 123.46C213.332 123.256 213.861 123.15 214.395 123.15H238.108H248.457H252.008C252.396 123.151 252.781 123.205 253.154 123.31C253.865 123.514 254.505 123.908 255.008 124.45C255.51 124.992 255.854 125.662 256.002 126.385C256.064 126.725 256.091 127.071 256.082 127.416V128.41C256.082 129.069 256.082 129.705 256.082 130.328C256.082 131.568 256.082 132.737 256.082 133.834C256.082 134.932 256.082 135.949 256.082 136.886C256.082 137.357 256.082 137.801 256.082 138.232C256.062 138.643 255.976 139.047 255.826 139.43C255.577 140.078 255.164 140.651 254.628 141.092C254.237 141.412 253.788 141.655 253.306 141.807C253.011 141.897 252.707 141.953 252.399 141.974C252.152 142.006 252.044 142.002 252.044 142.002Z" fill="#263238"/>
<path d="M248.114 133.855H227.245C226.873 133.855 226.516 133.707 226.253 133.444C225.99 133.181 225.843 132.824 225.843 132.453C225.844 132.082 225.992 131.726 226.255 131.464C226.518 131.202 226.874 131.055 227.245 131.055H248.114C248.485 131.055 248.841 131.202 249.104 131.464C249.367 131.726 249.515 132.082 249.516 132.453C249.516 132.824 249.368 133.181 249.105 133.444C248.842 133.707 248.486 133.855 248.114 133.855Z" fill="#E0E0E0"/>
<path d="M221.238 129.381H218.854C217.72 129.381 216.801 130.3 216.801 131.434V133.819C216.801 134.952 217.72 135.872 218.854 135.872H221.238C222.372 135.872 223.291 134.952 223.291 133.819V131.434C223.291 130.3 222.372 129.381 221.238 129.381Z" fill="#03CC5E"/>
<path d="M217.803 132.72L218.458 132.069L219.72 133.188L221.825 131.075L222.432 131.73L219.624 134.45L217.803 132.72Z" fill="white"/>
<path d="M246.973 75.8638H201.599C199.863 75.8638 198.456 77.2711 198.456 79.0071V106.786C198.456 108.522 199.863 109.93 201.599 109.93H246.973C248.709 109.93 250.116 108.522 250.116 106.786V79.0071C250.116 77.2711 248.709 75.8638 246.973 75.8638Z" fill="white"/>
<path d="M246.959 109.933C246.995 109.931 247.031 109.931 247.067 109.933C247.173 109.929 247.278 109.919 247.383 109.902C247.799 109.849 248.199 109.709 248.557 109.49C249.14 109.137 249.593 108.605 249.847 107.972C250.179 107.225 250.039 106.263 250.063 105.22C250.063 101.015 250.063 94.9355 250.031 87.4265C250.031 85.5493 250.031 83.5802 250.031 81.5312V79.9775C250.054 79.456 250.033 78.9336 249.967 78.4158C249.859 77.8967 249.618 77.4144 249.268 77.0161C248.918 76.6178 248.471 76.317 247.97 76.1431C247.445 75.9852 246.895 75.9269 246.348 75.9714H233.915H201.598C200.902 75.9771 200.229 76.2162 199.685 76.6504C199.148 77.088 198.774 77.6948 198.626 78.3718C198.565 78.7131 198.543 79.06 198.559 79.4063V90.8096C198.559 96.2136 198.559 101.426 198.559 106.387C198.509 106.99 198.619 107.597 198.878 108.144C199.145 108.676 199.562 109.119 200.076 109.418C200.585 109.713 201.166 109.858 201.754 109.838H210.377H222.667L240.457 109.874L245.294 109.894H246.552H246.983C246.983 109.894 246.836 109.894 246.552 109.894H245.294H240.457L222.667 109.925H210.377H203.531H201.754C201.133 109.948 200.519 109.796 199.98 109.486C199.433 109.169 198.992 108.698 198.71 108.132C198.44 107.558 198.323 106.924 198.371 106.291C198.371 101.322 198.371 96.1098 198.371 90.7137V79.4023C198.353 79.0413 198.377 78.6794 198.443 78.3239C198.6 77.5985 199.001 76.9487 199.579 76.4823C200.156 76.016 200.876 75.761 201.618 75.7597H233.935H246.368C246.934 75.7169 247.503 75.7792 248.046 75.9434C248.574 76.127 249.045 76.4442 249.414 76.8642C249.783 77.2842 250.037 77.7926 250.151 78.3399C250.217 78.8697 250.239 79.4041 250.215 79.9375V81.5312C250.215 83.5802 250.215 85.5493 250.215 87.4265C250.215 94.9355 250.191 101.007 250.183 105.22C250.183 105.744 250.183 106.243 250.183 106.706C250.192 107.148 250.112 107.587 249.947 107.996C249.686 108.639 249.22 109.177 248.621 109.526C248.256 109.745 247.847 109.882 247.423 109.925C247.269 109.941 247.114 109.943 246.959 109.933Z" fill="#263238"/>
<path d="M230.041 95.6465H230.037C229.258 95.6465 228.627 96.2777 228.627 97.0564V102.125C228.627 102.904 229.258 103.535 230.037 103.535H230.041C230.82 103.535 231.451 102.904 231.451 102.125V97.0564C231.451 96.2777 230.82 95.6465 230.041 95.6465Z" fill="#03CC5E"/>
<path d="M206.464 94.5044H206.46C205.681 94.5044 205.05 95.1356 205.05 95.9143V102.125C205.05 102.904 205.681 103.535 206.46 103.535H206.464C207.242 103.535 207.874 102.904 207.874 102.125V95.9143C207.874 95.1356 207.242 94.5044 206.464 94.5044Z" fill="#03CC5E"/>
<path d="M212.358 92.623H212.354C211.576 92.623 210.944 93.2543 210.944 94.033V102.129C210.944 102.908 211.576 103.539 212.354 103.539H212.358C213.137 103.539 213.768 102.908 213.768 102.129V94.033C213.768 93.2543 213.137 92.623 212.358 92.623Z" fill="#03CC5E"/>
<path d="M218.25 93.218H218.246C217.467 93.218 216.836 93.8493 216.836 94.6279V102.125C216.836 102.904 217.467 103.535 218.246 103.535H218.25C219.029 103.535 219.66 102.904 219.66 102.125V94.6279C219.66 93.8493 219.029 93.218 218.25 93.218Z" fill="#03CC5E"/>
<path d="M224.145 89.7314H224.141C223.363 89.7314 222.731 90.3627 222.731 91.1414V102.125C222.731 102.904 223.363 103.535 224.141 103.535H224.145C224.924 103.535 225.555 102.904 225.555 102.125V91.1414C225.555 90.3627 224.924 89.7314 224.145 89.7314Z" fill="#03CC5E"/>
<path d="M235.936 89.7993H235.932C235.154 89.7993 234.522 90.4306 234.522 91.2092V102.129C234.522 102.908 235.154 103.539 235.932 103.539H235.936C236.715 103.539 237.346 102.908 237.346 102.129V91.2092C237.346 90.4306 236.715 89.7993 235.936 89.7993Z" fill="#03CC5E"/>
<path d="M241.828 94.3125C241.642 94.3125 241.459 94.3491 241.287 94.4202C241.116 94.4913 240.96 94.5955 240.83 94.7269C240.699 94.8582 240.595 95.0141 240.524 95.1856C240.454 95.3572 240.417 95.5409 240.418 95.7264V102.117C240.418 102.491 240.567 102.85 240.831 103.114C241.095 103.378 241.454 103.527 241.828 103.527C242.202 103.527 242.56 103.378 242.825 103.114C243.089 102.85 243.238 102.491 243.238 102.117V95.7264C243.238 95.5409 243.202 95.3572 243.132 95.1856C243.061 95.0141 242.957 94.8582 242.826 94.7269C242.695 94.5955 242.54 94.4913 242.368 94.4202C242.197 94.3491 242.013 94.3125 241.828 94.3125Z" fill="#03CC5E"/>
<path d="M216.393 81.3796H205.497C204.853 81.3796 204.331 81.9018 204.331 82.5459V82.7976C204.331 83.4417 204.853 83.9638 205.497 83.9638H216.393C217.037 83.9638 217.56 83.4417 217.56 82.7976V82.5459C217.56 81.9018 217.037 81.3796 216.393 81.3796Z" fill="#E0E0E0"/>
<path d="M85.4007 68.2866H116.211C116.781 68.2866 117.328 68.513 117.731 68.916C118.134 69.319 118.36 69.8656 118.36 70.4355V97.8152C118.36 98.2972 118.169 98.7595 117.828 99.1003C117.487 99.4411 117.025 99.6326 116.543 99.6326H85.0732C84.5912 99.6326 84.129 99.4411 83.7881 99.1003C83.4473 98.7595 83.2559 98.2972 83.2559 97.8152V70.4355C83.2559 69.8662 83.4817 69.3203 83.8838 68.9174C84.286 68.5145 84.8315 68.2877 85.4007 68.2866Z" fill="white"/>
<path d="M85.4007 68.2866H116.211C116.781 68.2866 117.328 68.513 117.731 68.916C118.134 69.319 118.36 69.8656 118.36 70.4355V75.4321H83.2559V70.4355C83.2559 69.8662 83.4817 69.3203 83.8838 68.9174C84.286 68.5145 84.8315 68.2877 85.4007 68.2866Z" fill="#E0E0E0"/>
<path d="M89.0042 72.237C88.9987 72.4885 88.9191 72.7328 88.7753 72.9393C88.6316 73.1458 88.4301 73.3052 88.1961 73.3977C87.9621 73.4902 87.7061 73.5115 87.46 73.4591C87.214 73.4067 86.9888 73.2828 86.8129 73.103C86.6369 72.9232 86.5179 72.6954 86.4708 72.4483C86.4237 72.2011 86.4506 71.9456 86.5481 71.7137C86.6456 71.4817 86.8094 71.2838 87.019 71.1445C87.2285 71.0053 87.4745 70.931 87.7261 70.9309C87.8958 70.9325 88.0636 70.9675 88.2198 71.0341C88.376 71.1006 88.5175 71.1973 88.6362 71.3186C88.755 71.44 88.8486 71.5835 88.9117 71.7411C88.9749 71.8987 89.0063 72.0672 89.0042 72.237Z" fill="white"/>
<path d="M92.93 72.237C92.9245 72.4885 92.8448 72.7328 92.7011 72.9393C92.5574 73.1458 92.3559 73.3052 92.1219 73.3977C91.8879 73.4902 91.6319 73.5115 91.3858 73.4591C91.1397 73.4067 90.9146 73.2828 90.7387 73.103C90.5627 72.9232 90.4437 72.6954 90.3966 72.4483C90.3495 72.2011 90.3764 71.9456 90.4739 71.7137C90.5714 71.4817 90.7352 71.2838 90.9447 71.1445C91.1543 71.0053 91.4003 70.931 91.6518 70.9309C91.8216 70.9325 91.9894 70.9675 92.1456 71.0341C92.3018 71.1006 92.4433 71.1973 92.562 71.3186C92.6808 71.44 92.7744 71.5835 92.8375 71.7411C92.9007 71.8987 92.9321 72.0672 92.93 72.237Z" fill="white"/>
<path d="M96.8557 72.237C96.8502 72.4885 96.7706 72.7328 96.6269 72.9393C96.4831 73.1458 96.2817 73.3052 96.0477 73.3977C95.8137 73.4902 95.5576 73.5115 95.3116 73.4591C95.0655 73.4067 94.8404 73.2828 94.6644 73.103C94.4885 72.9232 94.3695 72.6954 94.3224 72.4483C94.2753 72.2011 94.3022 71.9456 94.3997 71.7137C94.4972 71.4817 94.661 71.2838 94.8705 71.1445C95.0801 71.0053 95.326 70.931 95.5776 70.9309C95.7474 70.9325 95.9152 70.9675 96.0714 71.0341C96.2275 71.1006 96.3691 71.1973 96.4878 71.3186C96.6065 71.44 96.7002 71.5835 96.7633 71.7411C96.8264 71.8987 96.8579 72.0672 96.8557 72.237Z" fill="white"/>
<path d="M109.682 78.9033H91.9319C90.7252 78.9033 89.7471 79.8815 89.7471 81.0881V93.8014C89.7471 95.0081 90.7252 95.9862 91.9319 95.9862H109.682C110.888 95.9862 111.867 95.0081 111.867 93.8014V81.0881C111.867 79.8815 110.888 78.9033 109.682 78.9033Z" fill="#03CC5E"/>
<path d="M98.3262 87.2749V84.6508C98.3287 84.5055 98.3688 84.3633 98.4425 84.238C98.5162 84.1128 98.6211 84.0087 98.7469 83.936C98.8727 83.8632 99.0152 83.8242 99.1606 83.8228C99.3059 83.8214 99.4491 83.8576 99.5763 83.9278L101.849 85.2379L104.118 86.552C104.246 86.6253 104.353 86.7313 104.428 86.8593C104.502 86.9874 104.541 87.1328 104.541 87.2809C104.541 87.429 104.502 87.5745 104.428 87.7025C104.353 87.8305 104.246 87.9366 104.118 88.0098L101.849 89.3199L99.5763 90.63C99.4498 90.6987 99.3079 90.734 99.164 90.7326C99.02 90.7312 98.8788 90.6931 98.7537 90.6219C98.6286 90.5508 98.5236 90.4489 98.4488 90.3259C98.374 90.2029 98.3318 90.0629 98.3262 89.919V87.2749Z" fill="white"/>
<path d="M116.543 99.6327C116.543 99.6327 116.655 99.6327 116.871 99.5927C117.191 99.5282 117.487 99.3793 117.73 99.1614C117.926 98.9855 118.081 98.7689 118.184 98.5267C118.288 98.2845 118.337 98.0227 118.329 97.7594C118.329 97.1283 118.329 96.4014 118.329 95.5826C118.329 92.2994 118.309 87.5624 118.297 81.707C118.297 78.7753 118.297 75.568 118.297 72.1211V70.819C118.311 70.6022 118.311 70.3847 118.297 70.168C118.272 69.9573 118.213 69.7522 118.121 69.5609C117.984 69.2669 117.778 69.0097 117.522 68.8104C117.266 68.6112 116.966 68.4755 116.647 68.4145C116.427 68.3809 116.203 68.3675 115.98 68.3746H110.277H98.1225H85.9124C85.6458 68.3665 85.379 68.3759 85.1136 68.4026C84.8505 68.4407 84.5977 68.5311 84.37 68.6682C84.1423 68.8054 83.9443 68.9867 83.7875 69.2014C83.628 69.4118 83.5125 69.6523 83.448 69.9083C83.3866 70.1699 83.3638 70.439 83.3801 70.7072V73.9943C83.3801 76.1725 83.3801 78.316 83.3801 80.4249C83.3801 84.6387 83.3801 88.7047 83.3801 92.579C83.3801 93.5456 83.3801 94.5042 83.3801 95.4468V97.5477C83.3665 97.7701 83.384 97.9932 83.432 98.2108C83.5339 98.6366 83.7956 99.007 84.163 99.2452C84.3423 99.365 84.543 99.4491 84.7541 99.4929C84.9682 99.5253 85.1848 99.5373 85.4011 99.5288H87.9933H97.5793L111.455 99.5608L115.225 99.5807H116.208H116.543H116.208H115.225H111.455L97.5793 99.7086H87.9933H85.3692C85.1394 99.7206 84.909 99.7072 84.6822 99.6686C84.4503 99.621 84.2295 99.5302 84.0312 99.401C83.6321 99.1328 83.3473 98.7256 83.2323 98.2587C83.1822 98.0266 83.1634 97.7888 83.1764 97.5517V92.595C83.1764 88.7207 83.1764 84.6547 83.1764 80.4409V70.7231C83.1609 70.4376 83.1851 70.1513 83.2483 69.8724C83.3587 69.4462 83.5915 69.0617 83.9181 68.7664C84.2446 68.4711 84.6505 68.278 85.0856 68.2108C85.3683 68.1839 85.6525 68.1746 85.9364 68.1829H115.952C116.186 68.1759 116.42 68.1906 116.651 68.2268C116.883 68.2736 117.106 68.3543 117.314 68.4665C117.726 68.6956 118.055 69.0494 118.253 69.477C118.352 69.6864 118.416 69.9102 118.445 70.14C118.458 70.3635 118.458 70.5876 118.445 70.811V72.1131C118.445 75.556 118.445 78.7633 118.445 81.699C118.445 87.5544 118.421 92.2915 118.413 95.5746C118.413 96.3735 118.413 97.1204 118.413 97.7514C118.418 98.0223 118.364 98.291 118.254 98.5387C118.144 98.7864 117.982 99.0071 117.778 99.1853C117.528 99.4038 117.222 99.5489 116.895 99.6047C116.813 99.6127 116.73 99.6127 116.647 99.6047C116.614 99.6182 116.579 99.6276 116.543 99.6327Z" fill="#263238"/>
<path d="M186.697 31.9204H226.238C226.808 31.9204 227.355 32.1468 227.758 32.5498C228.161 32.9528 228.387 33.4993 228.387 34.0693V61.2293C228.387 61.468 228.34 61.7043 228.249 61.9248C228.158 62.1453 228.024 62.3456 227.855 62.5144C227.686 62.6831 227.486 62.817 227.265 62.9083C227.045 62.9997 226.809 63.0467 226.57 63.0467H186.369C186.13 63.0467 185.894 62.9997 185.674 62.9083C185.453 62.817 185.253 62.6831 185.084 62.5144C184.915 62.3456 184.781 62.1453 184.69 61.9248C184.599 61.7043 184.552 61.468 184.552 61.2293V34.0693C184.552 33.5 184.778 32.9541 185.18 32.5512C185.582 32.1483 186.127 31.9215 186.697 31.9204Z" fill="white"/>
<path d="M186.696 31.9204H226.238C226.808 31.9204 227.354 32.1468 227.757 32.5498C228.16 32.9528 228.386 33.4993 228.386 34.0693V39.03H184.547V34.0653C184.548 33.496 184.775 32.9505 185.178 32.5484C185.581 32.1463 186.127 31.9204 186.696 31.9204Z" fill="#E0E0E0"/>
<path d="M190.383 35.8464C190.383 36.1032 190.307 36.3541 190.165 36.5676C190.022 36.7811 189.819 36.9475 189.582 37.0457C189.345 37.144 189.084 37.1697 188.832 37.1196C188.58 37.0695 188.349 36.9459 188.167 36.7643C187.986 36.5828 187.862 36.3515 187.812 36.0997C187.762 35.8479 187.788 35.5869 187.886 35.3497C187.984 35.1125 188.151 34.9097 188.364 34.7671C188.577 34.6245 188.828 34.5483 189.085 34.5483C189.429 34.5483 189.76 34.6851 190.003 34.9285C190.247 35.172 190.383 35.5022 190.383 35.8464Z" fill="white"/>
<path d="M194.366 35.8464C194.366 36.1032 194.29 36.3542 194.147 36.5676C194.004 36.7811 193.802 36.9475 193.564 37.0457C193.327 37.144 193.066 37.1697 192.814 37.1196C192.563 37.0695 192.331 36.9459 192.15 36.7643C191.968 36.5828 191.845 36.3515 191.794 36.0997C191.744 35.8479 191.77 35.5869 191.868 35.3497C191.967 35.1125 192.133 34.9097 192.346 34.7671C192.56 34.6245 192.811 34.5483 193.068 34.5483C193.238 34.5478 193.407 34.581 193.565 34.6461C193.723 34.7111 193.866 34.8067 193.987 34.9274C194.107 35.048 194.203 35.1913 194.268 35.3491C194.333 35.5068 194.366 35.6758 194.366 35.8464Z" fill="white"/>
<path d="M198.347 35.8464C198.347 36.1033 198.271 36.3545 198.128 36.568C197.985 36.7816 197.782 36.948 197.545 37.0461C197.307 37.1442 197.046 37.1697 196.794 37.1193C196.542 37.0689 196.311 36.9448 196.13 36.7629C195.948 36.581 195.825 36.3493 195.775 36.0972C195.726 35.8452 195.752 35.584 195.851 35.3469C195.95 35.1098 196.117 34.9073 196.331 34.7652C196.545 34.623 196.796 34.5476 197.053 34.5483C197.223 34.5483 197.392 34.5819 197.549 34.6472C197.706 34.7125 197.849 34.8082 197.97 34.9288C198.09 35.0494 198.185 35.1925 198.25 35.35C198.315 35.5075 198.348 35.6762 198.347 35.8464Z" fill="white"/>
<path d="M202.717 43.032H190.067C189.187 43.032 188.474 43.7455 188.474 44.6256V57.2751C188.474 58.1552 189.187 58.8687 190.067 58.8687H202.717C203.597 58.8687 204.31 58.1552 204.31 57.2751V44.6256C204.31 43.7455 203.597 43.032 202.717 43.032Z" fill="#03CC5E"/>
<path d="M223.794 46.299H209.119C209.013 46.2991 208.907 46.2777 208.809 46.2364C208.711 46.195 208.622 46.1343 208.547 46.058C208.473 45.9817 208.414 45.8913 208.376 45.7921C208.337 45.6928 208.318 45.5868 208.321 45.4802C208.321 45.2684 208.405 45.0652 208.555 44.9154C208.704 44.7656 208.908 44.6814 209.119 44.6814H223.794C224.008 44.6813 224.213 44.7649 224.366 44.9141C224.519 45.0634 224.607 45.2665 224.613 45.4802C224.613 45.6974 224.526 45.9056 224.373 46.0592C224.219 46.2128 224.011 46.299 223.794 46.299Z" fill="#E0E0E0"/>
<path d="M223.795 50.0415H209.12C208.908 50.0415 208.705 49.9573 208.555 49.8075C208.405 49.6577 208.321 49.4545 208.321 49.2427C208.321 49.0308 208.405 48.8276 208.555 48.6778C208.705 48.528 208.908 48.4438 209.12 48.4438H223.795C224.008 48.4438 224.214 48.5273 224.367 48.6766C224.52 48.8258 224.608 49.029 224.613 49.2427C224.608 49.4564 224.52 49.6595 224.367 49.8088C224.214 49.958 224.008 50.0416 223.795 50.0415Z" fill="#E0E0E0"/>
<path d="M223.794 53.7841H209.119C209.013 53.7842 208.907 53.7629 208.809 53.7215C208.711 53.6801 208.622 53.6194 208.547 53.5431C208.473 53.4668 208.414 53.3764 208.376 53.2772C208.337 53.1779 208.318 53.0719 208.321 52.9653C208.321 52.7535 208.405 52.5503 208.555 52.4005C208.704 52.2507 208.908 52.1665 209.119 52.1665H223.794C224.008 52.1664 224.213 52.25 224.366 52.3992C224.519 52.5485 224.607 52.7516 224.613 52.9653C224.613 53.1825 224.526 53.3908 224.373 53.5443C224.219 53.6979 224.011 53.7841 223.794 53.7841Z" fill="#E0E0E0"/>
<path d="M216.604 57.5266H209.119C209.013 57.5266 208.907 57.5053 208.809 57.4639C208.711 57.4225 208.622 57.3619 208.547 57.2856C208.473 57.2093 208.414 57.1188 208.376 57.0196C208.337 56.9204 208.318 56.8143 208.321 56.7078C208.321 56.4959 208.405 56.2927 208.555 56.1429C208.704 55.9931 208.908 55.9089 209.119 55.9089H216.604C216.816 55.9089 217.019 55.9931 217.169 56.1429C217.319 56.2927 217.403 56.4959 217.403 56.7078C217.406 56.8143 217.387 56.9204 217.348 57.0196C217.309 57.1188 217.251 57.2093 217.176 57.2856C217.102 57.3619 217.013 57.4225 216.915 57.4639C216.817 57.5053 216.711 57.5266 216.604 57.5266Z" fill="#E0E0E0"/>
<path d="M226.589 63.0305C226.714 63.0196 226.838 63.0022 226.961 62.9785C227.321 62.8981 227.648 62.71 227.899 62.4393C228.082 62.2398 228.218 62.0025 228.299 61.7443C228.376 61.427 228.403 61.0995 228.379 60.7738C228.379 60.0602 228.379 59.2387 228.379 58.3094C228.379 54.5988 228.359 49.2347 228.347 42.6125C228.347 40.9549 228.347 39.2174 228.347 37.4201C228.347 36.5121 228.347 35.5894 228.347 34.6521C228.391 34.1893 228.337 33.7223 228.187 33.2822C228.054 32.9577 227.839 32.6733 227.563 32.4564C227.287 32.2394 226.96 32.0974 226.613 32.044C226.374 32.0144 226.132 32.0051 225.89 32.016H187.319C187.009 32.0057 186.698 32.0137 186.388 32.04C185.937 32.1064 185.521 32.3217 185.206 32.6517C184.891 32.9817 184.696 33.4075 184.651 33.8613C184.651 34.1529 184.651 34.4804 184.651 34.788V45.7838C184.651 50.5528 184.651 55.154 184.651 59.5356C184.719 60.598 184.383 61.8362 185.254 62.5192C185.446 62.6858 185.672 62.8073 185.917 62.8747C186.167 62.9306 186.424 62.9521 186.68 62.9386H194.269H205.113L220.81 62.9745H225.076H226.186H226.565C226.565 62.9745 226.438 62.9745 226.186 62.9745H225.076L220.81 62.9945L205.113 63.0265H194.269H188.23H186.664C186.396 63.0402 186.127 63.0174 185.865 62.9586C185.594 62.8818 185.342 62.7453 185.13 62.5591C184.916 62.3748 184.744 62.1453 184.628 61.8871C184.512 61.629 184.454 61.3484 184.459 61.0653C184.459 60.5221 184.459 59.9789 184.459 59.4317C184.459 55.0382 184.459 50.4489 184.459 45.6799V38.5105C184.459 37.2763 184.459 36.0381 184.459 34.788C184.459 34.4724 184.459 34.1729 184.459 33.8413C184.511 33.3451 184.725 32.88 185.069 32.5187C185.413 32.1573 185.867 31.9202 186.36 31.8443C186.68 31.8133 187.002 31.804 187.323 31.8163H201.135H214.883H225.854C226.105 31.8053 226.356 31.816 226.605 31.8483C226.982 31.908 227.336 32.0641 227.634 32.3014C227.932 32.5386 228.164 32.849 228.307 33.2023C228.401 33.4312 228.456 33.6742 228.471 33.9212C228.471 34.1689 228.471 34.3965 228.471 34.6362C228.471 35.5735 228.471 36.4961 228.471 37.4041C228.471 39.2095 228.471 40.9469 228.471 42.5965C228.471 49.2187 228.443 54.5789 228.435 58.2934C228.435 59.2201 228.435 60.0415 228.435 60.7578C228.458 61.0892 228.428 61.4222 228.347 61.7443C228.26 62.0076 228.117 62.2488 227.927 62.4513C227.668 62.7244 227.33 62.9113 226.961 62.9865C226.84 63.0176 226.715 63.0324 226.589 63.0305Z" fill="#263238"/>
<g opacity="0.3">
<path d="M188.473 54.3711V57.3268C188.473 57.7336 188.634 58.1237 188.922 58.4113C189.21 58.6989 189.6 58.8605 190.006 58.8605H202.748C203.162 58.8605 203.559 58.696 203.852 58.4031C204.145 58.1102 204.309 57.713 204.309 57.2988V52.5498L200.627 49.1188C200.527 49.0264 200.41 48.9549 200.282 48.9085C200.154 48.8622 200.018 48.842 199.882 48.849C199.746 48.8561 199.613 48.8903 199.49 48.9497C199.368 49.0091 199.259 49.0924 199.169 49.1947L196.281 52.5059L193.437 51.1758C193.184 51.0563 192.901 51.0138 192.623 51.0536C192.345 51.0933 192.086 51.2136 191.876 51.3995L188.473 54.3711Z" fill="black"/>
</g>
<g opacity="0.3">
<path d="M195.639 48.6596C196.429 48.6596 197.069 48.0194 197.069 47.2297C197.069 46.44 196.429 45.7998 195.639 45.7998C194.849 45.7998 194.209 46.44 194.209 47.2297C194.209 48.0194 194.849 48.6596 195.639 48.6596Z" fill="black"/>
</g>
<path d="M134.995 83.3087C136.061 82.3901 137.575 82.1344 138.661 81.2397C139.748 80.3451 140.259 78.9032 140.339 77.4972C140.345 76.0885 140.139 74.6868 139.728 73.3394L151.347 87.9219C150.424 89.5196 149.429 91.1492 147.984 92.3155C146.538 93.4818 144.533 94.1008 142.791 93.4698C141.05 92.8387 139.867 90.6739 140.67 89.0163C139.109 90.4662 136.397 90.4942 134.875 89.0163C133.353 87.5385 133.377 84.6987 134.995 83.3087Z" fill="#263238"/>
<path d="M168.57 40.7031C171.386 42.7641 171.853 44.8131 171.965 45.8955C171.997 46.219 171.941 46.6264 171.634 46.7263C171.48 46.7609 171.319 46.747 171.174 46.6863L161.748 43.8225" fill="#263238"/>
<path d="M142.524 77.4733C140.407 73.6709 138.294 69.8325 136.861 65.7225C135.427 61.6126 134.688 57.1791 135.387 52.8814C135.491 52.2264 136.613 47.7769 137.272 47.713C137.739 47.6691 137.304 51.7071 137.615 52.0546C140.591 55.4337 142.097 59.9071 142.608 64.3805C143.07 68.7342 143.041 73.1259 142.524 77.4733Z" fill="#263238"/>
<path d="M147.002 100.583L138.894 61.257C136.437 50.6166 140.583 40.3157 151.276 38.1549L152.278 38.0151C157.135 37.3242 162.074 38.488 166.112 41.2747C170.15 44.0614 172.989 48.2667 174.066 53.053C176.143 62.2875 178.324 72.5164 178.971 77.537C180.313 87.9218 170.184 91.0133 170.184 91.0133C170.184 91.0133 172.081 101.502 172.644 104.525L156.967 106.522L153.193 106.862L147.002 100.583Z" fill="#FFBF9D"/>
<path d="M170.18 91.0132C170.18 91.0132 163.693 92.3273 156.104 88.9363C156.104 88.9363 160.458 96.2775 170.679 93.873L170.18 91.0132Z" fill="#FF9A6C"/>
<path d="M172.168 63.1582C172.228 63.5413 172.136 63.9326 171.913 64.2494C171.689 64.5662 171.351 64.7836 170.97 64.8557C170.784 64.8977 170.591 64.902 170.403 64.8682C170.215 64.8344 170.035 64.7633 169.875 64.6591C169.715 64.5548 169.578 64.4196 169.471 64.2612C169.364 64.1029 169.29 63.9248 169.253 63.7373C169.194 63.3539 169.286 62.9626 169.509 62.6454C169.733 62.3282 170.07 62.1098 170.451 62.0358C170.638 61.9939 170.831 61.9897 171.019 62.0238C171.207 62.0578 171.387 62.1292 171.547 62.2339C171.707 62.3386 171.845 62.4743 171.951 62.6331C172.058 62.7918 172.132 62.9704 172.168 63.1582Z" fill="#263238"/>
<path d="M172.52 57.9659C172.364 58.1856 171.126 57.5145 169.532 57.7462C167.939 57.9779 166.884 58.9444 166.68 58.7687C166.584 58.6928 166.72 58.3174 167.18 57.874C167.802 57.2986 168.588 56.9302 169.428 56.8196C170.249 56.6965 171.088 56.8364 171.825 57.219C172.384 57.5225 172.6 57.8461 172.52 57.9659Z" fill="#263238"/>
<path d="M158.429 65.1074C158.488 65.4904 158.395 65.8812 158.172 66.1977C157.949 66.5142 157.611 66.7319 157.231 66.8049C157.044 66.8463 156.851 66.85 156.663 66.8157C156.475 66.7815 156.296 66.7099 156.136 66.6054C155.976 66.5008 155.838 66.3653 155.731 66.2068C155.624 66.0483 155.55 65.8701 155.513 65.6825C155.456 65.2968 155.551 64.904 155.779 64.5872C156.006 64.2704 156.348 64.0545 156.731 63.985C156.917 63.9466 157.108 63.9451 157.293 63.9808C157.479 64.0165 157.656 64.0886 157.814 64.1929C157.972 64.2972 158.107 64.4317 158.213 64.5887C158.318 64.7456 158.392 64.9219 158.429 65.1074Z" fill="#263238"/>
<path d="M156.947 60.534C156.791 60.7536 155.549 60.0826 153.955 60.3103C152.361 60.5379 151.307 61.5085 151.107 61.3328C151.007 61.2609 151.143 60.8854 151.602 60.4421C152.225 59.8661 153.01 59.4964 153.851 59.3836C154.672 59.2595 155.511 59.3994 156.248 59.7831C156.807 60.1066 157.022 60.4341 156.947 60.534Z" fill="#263238"/>
<path d="M164.404 71.9733C164.384 71.8814 165.351 71.5739 166.924 71.1385C167.324 71.0386 167.699 70.9028 167.723 70.6153C167.747 70.3277 167.543 69.8923 167.28 69.449L165.634 66.5173C163.338 62.3394 161.612 58.8845 161.78 58.7926C161.948 58.7008 163.949 62.0119 166.249 66.1898L167.847 69.1454C168.067 69.5848 168.406 70.0721 168.286 70.7111C168.247 70.8632 168.174 71.0044 168.072 71.1241C167.97 71.2438 167.843 71.3388 167.699 71.4021C167.483 71.4958 167.257 71.5616 167.024 71.5978C165.422 71.9134 164.42 72.0611 164.404 71.9733Z" fill="#263238"/>
<path d="M156.754 55.4733C156.595 55.9127 154.989 55.701 153.1 55.9287C151.21 56.1563 149.681 56.6716 149.429 56.2762C149.317 56.0884 149.585 55.677 150.2 55.2537C151.024 54.732 151.956 54.4057 152.925 54.2998C153.894 54.1939 154.875 54.3111 155.792 54.6426C156.475 54.9221 156.822 55.2656 156.754 55.4733Z" fill="#263238"/>
<path d="M172.36 55.3336C172.088 55.733 170.734 55.5772 169.165 55.8049C167.595 56.0326 166.325 56.4999 165.969 56.1684C165.806 56.0046 165.969 55.6092 166.481 55.1778C167.212 54.6407 168.067 54.2975 168.966 54.1801C169.866 54.0628 170.781 54.1752 171.625 54.5068C172.24 54.7904 172.48 55.1339 172.36 55.3336Z" fill="#263238"/>
<path d="M140.831 68.8178C140.643 68.7659 133.406 67.7194 134.636 74.781C135.866 81.8427 142.712 79.1346 142.68 78.9429C142.648 78.7512 140.831 68.8178 140.831 68.8178Z" fill="#FFBF9D"/>
<path d="M140.056 76.6464C140.024 76.6264 139.948 76.7542 139.756 76.886C139.486 77.0618 139.158 77.1249 138.842 77.0618C138.043 76.922 137.212 75.8436 136.957 74.5774C136.836 73.9749 136.848 73.3533 136.992 72.7561C137.022 72.5245 137.106 72.3034 137.239 72.1114C137.372 71.9195 137.549 71.7625 137.755 71.6537C137.891 71.5866 138.047 71.5707 138.193 71.6089C138.34 71.647 138.468 71.7366 138.554 71.8614C138.686 72.0451 138.662 72.1929 138.702 72.1969C138.742 72.2009 138.834 72.0531 138.726 71.7695C138.657 71.5995 138.531 71.4585 138.37 71.3701C138.151 71.2569 137.895 71.2354 137.659 71.3102C137.12 71.442 136.721 72.0292 136.565 72.6283C136.373 73.292 136.346 73.9926 136.485 74.6693C136.777 76.0832 137.739 77.2894 138.81 77.4053C139.01 77.4255 139.212 77.4 139.401 77.3308C139.59 77.2617 139.76 77.1505 139.9 77.0058C140.076 76.8181 140.084 76.6544 140.056 76.6464Z" fill="#FF9A6C"/>
<path d="M167.372 42.2128C168.398 41.3741 164.296 38.3066 161.257 37.5517C156.667 36.3974 149.981 36.3974 146.275 38.2347C141.817 40.4355 138.338 43.491 136.765 48.22C135.191 52.9491 135.219 58.0855 136.253 62.9464C136.569 64.4322 137.008 65.958 138.035 67.0723C139.305 68.4503 140.855 68.9615 141.689 71.2502C141.961 72.0011 142.173 72.7919 142.816 73.2672C144.357 74.4015 145.699 72.8239 146.187 71.398C147.229 68.3504 146.798 65.0074 146.351 61.836C146.035 59.5673 145.703 57.2547 144.673 55.2137C144.114 54.1034 143.355 53.0929 142.86 51.9505C142.364 50.8082 142.149 49.4502 142.712 48.3558C142.845 48.1144 143 47.8858 143.175 47.6728C144.001 46.6338 145.088 45.8334 146.326 45.3539C147.564 44.8745 148.907 44.7333 150.217 44.9448C154.443 45.6198 161.608 46.4706 163.13 44.801C165.323 42.4046 165.698 41.0186 165.698 41.0186L167.372 42.2128Z" fill="#263238"/>
<path d="M159.615 73.8664C159.855 73.8065 160.163 75.4241 161.764 76.3108C163.366 77.1975 165.051 76.7102 165.107 76.9179C165.147 77.0137 164.784 77.3173 164.057 77.4611C163.115 77.659 162.133 77.5175 161.285 77.0617C160.472 76.6201 159.863 75.8795 159.587 74.9967C159.396 74.3137 159.488 73.8783 159.615 73.8664Z" fill="#263238"/>
<path d="M135.882 69.4209C135.726 69.3251 135.522 69.3371 135.375 69.2372C125.593 62.8466 130.809 53.9996 130.486 51.6311C130.034 48.3479 126.891 53.1808 125.621 48.983C123.911 43.4232 129.527 39.8844 136.533 36.074C139.469 34.4763 147.073 32.7588 154.051 32.9346C160.278 33.0943 165.055 36.6172 167.923 39.4769C167.923 39.4769 169.445 39.9003 169.896 40.4595C171.306 42.2209 170.974 43.1116 170.974 43.1116C170.974 43.1116 156.468 38.6582 147.009 49.7379C137.551 60.8176 141.018 68.2467 138.091 68.8817L135.882 69.4209Z" fill="#455A64"/>
<path d="M139.868 40.4595C139.697 40.5892 139.517 40.7067 139.329 40.811C139.149 40.9188 138.929 41.0506 138.694 41.2104C138.458 41.3701 138.167 41.5539 137.895 41.7815C137.194 42.2915 136.527 42.8465 135.898 43.4431C135.138 44.1793 134.431 44.9696 133.785 45.8076C133.15 46.6527 132.577 47.5431 132.072 48.4717C131.663 49.2334 131.304 50.0205 130.997 50.8282C130.853 51.1717 130.761 51.4913 130.666 51.7669C130.57 52.0425 130.498 52.2861 130.442 52.4858C130.394 52.6964 130.327 52.9022 130.242 53.1009C130.267 52.8867 130.307 52.6744 130.362 52.4658C130.406 52.2621 130.466 52.0145 130.554 51.7349C130.642 51.4553 130.725 51.1238 130.861 50.7763C131.15 49.9533 131.499 49.1524 131.904 48.3798C132.895 46.4815 134.201 44.765 135.766 43.3033C136.404 42.7078 137.084 42.1579 137.799 41.6577C138.099 41.438 138.39 41.2583 138.638 41.1105C138.885 40.9627 139.109 40.8269 139.297 40.7111C139.48 40.6106 139.671 40.5264 139.868 40.4595Z" fill="#263238"/>
<path d="M168.314 39.5927C168.27 39.59 168.225 39.5819 168.183 39.5688L167.783 39.4889C167.448 39.409 166.952 39.3131 166.313 39.1893C165.674 39.0655 164.887 38.9497 163.965 38.8658C162.925 38.7586 161.879 38.7199 160.833 38.75C158.111 38.8206 155.419 39.3458 152.869 40.3037C151.373 40.8641 149.931 41.562 148.563 42.3886C147.091 43.2848 145.714 44.3287 144.454 45.504C143.196 46.6835 142.068 47.9929 141.086 49.4103C140.188 50.7418 139.415 52.1538 138.778 53.6281C137.724 56.1401 136.966 58.7658 136.517 61.4526C136.118 63.7452 135.942 65.6225 135.83 66.9166C135.778 67.5556 135.738 68.0589 135.71 68.4144C135.71 68.5741 135.682 68.702 135.674 68.8138C135.679 68.8576 135.679 68.9018 135.674 68.9456C135.667 68.902 135.667 68.8574 135.674 68.8138C135.674 68.7139 135.674 68.5861 135.674 68.4144C135.674 68.0709 135.71 67.5676 135.754 66.9166C135.846 65.6145 135.998 63.7213 136.381 61.4286C136.81 58.7317 137.556 56.0946 138.602 53.5722C139.237 52.0838 140.013 50.6594 140.919 49.3184C141.904 47.8853 143.041 46.5623 144.31 45.3722C146.767 43.0742 149.662 41.2935 152.821 40.1359C155.394 39.1792 158.109 38.6647 160.853 38.6142C161.903 38.5936 162.953 38.6429 163.997 38.7619C164.919 38.8578 165.706 39.0016 166.349 39.1214C166.992 39.2412 167.48 39.3691 167.811 39.4609L168.187 39.5608C168.231 39.5654 168.274 39.5762 168.314 39.5927Z" fill="#263238"/>
<path d="M139.776 65.1032C139.154 65.3422 138.473 65.3826 137.827 65.219C137.169 65.1253 136.555 64.8342 136.065 64.3843C136.646 64.648 137.249 64.8592 137.867 65.0153C138.499 65.1022 139.138 65.1316 139.776 65.1032Z" fill="#263238"/>
<path d="M142.34 58.1735C142.089 58.2142 141.833 58.2047 141.585 58.1455C140.981 58.0471 140.398 57.8487 139.86 57.5584C139.32 57.2703 138.832 56.8952 138.414 56.448C138.229 56.2747 138.08 56.0672 137.975 55.8369C139.125 57.086 140.663 57.9094 142.34 58.1735Z" fill="#263238"/>
<path d="M147.313 49.3025C146.799 48.6943 146.242 48.1231 145.647 47.593C145.012 47.1155 144.345 46.6818 143.65 46.2949C144.443 46.499 145.176 46.8892 145.787 47.4332C146.439 47.9245 146.962 48.5658 147.313 49.3025Z" fill="#263238"/>
<path d="M153.116 44.929C152.814 44.2673 152.473 43.6232 152.098 42.9998C151.665 42.4163 151.201 41.8563 150.708 41.3223C151.95 42.1568 152.812 43.4492 153.104 44.917L153.116 44.929Z" fill="#263238"/>
<path d="M162.614 42.5446C162.586 41.819 162.426 41.1045 162.143 40.4357C161.802 39.796 161.344 39.2257 160.793 38.7542C160.793 38.7302 161.041 38.8301 161.36 39.0897C161.768 39.4353 162.098 39.8628 162.329 40.3446C162.56 40.8263 162.687 41.3514 162.702 41.8856C162.726 42.1091 162.696 42.3352 162.614 42.5446Z" fill="#263238"/>
<path d="M168.674 42.868C168.666 42.3028 168.625 41.7386 168.55 41.1785C168.403 40.6359 168.224 40.1024 168.015 39.5808C168.383 40.0339 168.636 40.5701 168.751 41.1429C168.866 41.7156 168.839 42.3078 168.674 42.868Z" fill="#263238"/>
<path d="M159.61 106.554C159.59 106.554 159.61 106.243 159.59 105.676C159.555 104.881 159.448 104.091 159.271 103.315C159 102.164 158.634 101.038 158.176 99.9481C157.673 98.7099 157.03 97.3839 156.395 95.954C155.804 94.6902 155.311 93.383 154.921 92.0437V91.9678L154.989 91.9319C155.838 91.4912 156.584 90.8776 157.182 90.1305L157.222 90.0786L157.281 90.1106C157.905 90.4541 158.606 90.6328 159.318 90.6298H159.354V90.6618C159.591 91.0812 159.871 91.4748 160.189 91.836C160.409 92.0917 160.541 92.2354 160.533 92.2354C160.525 92.2354 160.493 92.2115 160.425 92.1556C160.357 92.0996 160.261 92.0078 160.145 91.888C159.802 91.5379 159.503 91.1476 159.255 90.7257L159.306 90.7576C158.569 90.7778 157.84 90.6058 157.19 90.2584H157.289C156.689 91.0353 155.929 91.6741 155.061 92.1316L155.109 92.0198C155.508 93.3448 156.002 94.6395 156.586 95.8941C157.222 97.304 157.861 98.634 158.356 99.8882C158.811 100.99 159.167 102.13 159.418 103.295C159.585 104.083 159.671 104.886 159.674 105.692C159.676 105.91 159.666 106.129 159.646 106.347C159.644 106.417 159.632 106.487 159.61 106.554Z" fill="#FF9A6C"/>
<path d="M127.802 107.561L144.082 97.7871C144.082 97.7871 156.711 106.107 164.951 103.055C170.515 100.998 170.515 93.4695 170.515 93.4695L186.512 93.5254L200.671 136.878L204.293 188.757H133.441L130.586 127.863L127.802 107.561Z" fill="#03CC5E"/>
<g opacity="0.3">
<path d="M132.787 176.036C137.736 180.23 144.202 182.287 150.653 182.954C157.103 183.621 163.606 182.99 170.06 182.363C181.204 181.277 192.575 181.564 203.719 180.494C203.403 177.698 203.124 170.756 202.808 167.972L132.787 172.997V176.036Z" fill="black"/>
</g>
<path d="M126.983 155.075C126.983 155.075 125.449 154.336 124.69 155.103C124.165 155.677 123.723 156.322 123.38 157.02C123.38 157.02 120.916 156.281 119.893 158.326C119.893 158.326 118.052 159.489 119.142 161.773C119.142 161.773 117.173 164.521 118.743 166.898C118.919 167.182 119.135 167.44 119.386 167.661C119.386 167.661 120.125 170.524 121.112 171.004C122.098 171.483 125.621 172.557 125.741 170.944C125.861 169.33 125.229 169.478 125.229 169.478C125.229 169.478 129.395 171.735 131.241 173.396C133.086 175.058 137.935 177.518 140.926 177.51C143.918 177.502 142.64 171.072 142.64 171.072L126.983 155.075Z" fill="#FFBF9D"/>
<path d="M193.756 124.588C193.561 125.566 193.401 130.847 193.401 130.847L196.856 152.699C190.038 154.113 156.515 160.911 156.515 160.911L153.388 177.39C153.388 177.39 206.11 176.416 211.99 170.936C217.869 165.456 214.885 143.288 214.885 141.136C214.885 138.983 213.435 124.736 213.435 124.736L193.756 124.588Z" fill="#FFBF9D"/>
<path d="M120.456 162.113C120.641 162.167 120.82 162.238 120.992 162.324L122.422 162.975L124.53 163.962L125.138 164.249L125.453 164.397C125.587 164.449 125.697 164.547 125.765 164.673C125.782 164.713 125.792 164.757 125.792 164.801C125.792 164.845 125.782 164.888 125.765 164.928C125.73 165.002 125.675 165.063 125.605 165.104C125.483 165.175 125.346 165.216 125.205 165.224C124.951 165.259 124.694 165.269 124.439 165.252C123.404 165.184 122.485 164.853 121.643 164.717C121.248 164.628 120.839 164.628 120.444 164.717C120.277 164.761 120.121 164.839 119.983 164.944C119.846 165.05 119.732 165.182 119.646 165.332C119.403 165.786 119.294 166.3 119.334 166.814C119.348 167.005 119.348 167.197 119.334 167.389C119.284 167.202 119.254 167.011 119.246 166.818C119.178 166.283 119.271 165.741 119.514 165.26C119.604 165.091 119.726 164.942 119.874 164.82C120.023 164.699 120.193 164.608 120.377 164.553C120.796 164.457 121.231 164.457 121.651 164.553C122.525 164.685 123.448 165.008 124.447 165.072C124.689 165.088 124.933 165.08 125.173 165.048C125.401 165.048 125.633 164.908 125.573 164.781C125.513 164.653 125.241 164.561 125.046 164.457L124.443 164.162L122.342 163.107L120.94 162.4C120.77 162.32 120.608 162.224 120.456 162.113Z" fill="#FF9A6C"/>
<path d="M127.063 160.911C126.721 160.745 126.389 160.561 126.068 160.359C124.473 159.469 122.739 158.854 120.94 158.538C120.563 158.491 120.19 158.423 119.821 158.334C120.203 158.307 120.587 158.327 120.964 158.394C121.88 158.513 122.781 158.728 123.652 159.037C124.522 159.346 125.356 159.748 126.14 160.236C126.476 160.419 126.786 160.646 127.063 160.911Z" fill="#FF9A6C"/>
<path d="M126.655 158.071C126.099 157.91 125.557 157.706 125.033 157.46C124.658 157.311 124.27 157.193 123.875 157.108C123.706 157.091 123.54 157.055 123.38 157C123.38 156.972 123.576 156.932 123.899 156.96C124.311 157.006 124.714 157.108 125.097 157.264C125.655 157.451 126.181 157.723 126.655 158.071Z" fill="#FF9A6C"/>
<path d="M125.577 169.65C125.336 169.685 125.091 169.674 124.854 169.618C124.28 169.521 123.719 169.36 123.181 169.139C122.643 168.924 122.119 168.677 121.611 168.4C121.389 168.297 121.183 168.163 121 168C121.032 167.936 122.015 168.424 123.257 168.931C123.786 169.143 124.329 169.319 124.882 169.458C125.119 169.501 125.352 169.565 125.577 169.65Z" fill="#FF9A6C"/>
<path d="M122.834 168.791C122.886 168.791 122.79 169.19 122.434 169.538C122.079 169.885 121.675 169.937 121.663 169.889C121.651 169.842 121.979 169.686 122.294 169.386C122.61 169.087 122.778 168.767 122.834 168.791Z" fill="#FF9A6C"/>
<path d="M186.076 93.5135C186.076 93.5135 198.53 93.0063 204.881 101.753C211.035 110.237 215.868 127.863 215.868 127.863L192.091 131.03L188.569 108.104L186.076 93.5135Z" fill="#03CC5E"/>
<path d="M206.108 162.708C206.068 162.708 205.904 161.929 205.413 160.743C205.281 160.419 205.133 160.102 204.969 159.792C204.806 159.453 204.594 159.109 204.378 158.746C203.885 157.97 203.324 157.24 202.701 156.565C202.066 155.9 201.373 155.292 200.632 154.748C200.28 154.508 199.953 154.272 199.621 154.093C199.324 153.908 199.017 153.738 198.702 153.585C197.548 153.018 196.773 152.807 196.789 152.763C196.974 152.792 197.156 152.839 197.333 152.902C197.545 152.961 197.755 153.032 197.96 153.114C198.199 153.21 198.475 153.306 198.758 153.454C199.081 153.599 199.396 153.762 199.701 153.941C200.041 154.121 200.376 154.34 200.732 154.592C202.267 155.664 203.562 157.045 204.534 158.646C204.746 159.018 204.957 159.369 205.113 159.716C205.273 160.032 205.416 160.356 205.54 160.687C205.668 160.987 205.748 161.27 205.828 161.518C205.908 161.765 205.96 161.977 206 162.153C206.056 162.333 206.092 162.52 206.108 162.708Z" fill="#FF9A6C"/>
<path d="M188.568 108.096C188.568 108.096 188.62 108.2 188.704 108.396C188.788 108.591 188.912 108.907 189.064 109.274C189.355 110.041 189.743 111.164 190.142 112.578C191.134 116.272 191.919 120.019 192.495 123.801C193.21 128.223 193.717 132.245 194.092 135.156C194.268 136.594 194.412 137.769 194.492 138.603C194.536 139.003 194.572 139.31 194.596 139.542C194.614 139.65 194.622 139.76 194.619 139.87C194.588 139.764 194.567 139.656 194.556 139.546L194.412 138.615C194.296 137.781 194.128 136.618 193.928 135.172C193.529 132.269 192.998 128.251 192.283 123.833C191.568 119.416 190.773 115.445 189.994 112.618C189.619 111.204 189.251 110.073 188.984 109.302L188.66 108.412C188.621 108.309 188.59 108.204 188.568 108.096Z" fill="#263238"/>
<path d="M146.279 111.815L143.854 137.533L140.14 130.982L121 133.259C121.196 134.238 128.01 158.17 130.945 164.813C133.881 171.455 142.093 183.278 151.287 179.032C160.482 174.786 159.887 141.347 159.887 137.533C159.887 133.718 158.046 110.968 158.046 110.968" fill="#FFBF9D"/>
<path d="M158.053 110.968C158.053 110.968 158.073 111.128 158.101 111.439C158.129 111.751 158.169 112.218 158.221 112.825C158.321 114.047 158.468 115.845 158.66 118.153C158.852 120.462 159.06 123.302 159.307 126.589C159.424 128.234 159.547 129.99 159.675 131.857C159.79 133.722 159.938 135.695 159.966 137.772C160.002 141.926 159.966 146.476 159.671 151.352C159.427 156.547 158.799 161.716 157.793 166.818C157.258 169.588 156.382 172.282 155.185 174.838C154.562 176.169 153.674 177.359 152.577 178.337C152.288 178.574 151.978 178.784 151.65 178.964C151.319 179.135 150.977 179.287 150.628 179.419C150.28 179.559 149.917 179.651 149.557 179.759C149.192 179.848 148.821 179.916 148.447 179.962C147.694 180.056 146.932 180.056 146.178 179.962C145.421 179.859 144.677 179.677 143.958 179.419C142.517 178.873 141.169 178.106 139.964 177.147C137.527 175.158 135.428 172.788 133.749 170.129C132.792 168.672 131.936 167.15 131.188 165.576C130.458 164.006 129.862 162.38 129.299 160.783C128.173 157.587 127.158 154.392 126.184 151.261C125.209 148.129 124.291 145.066 123.412 142.074C122.533 139.082 121.674 136.151 120.916 133.287L120.892 133.187H120.995L140.135 130.922H140.187L140.215 130.966L143.91 137.497L143.774 137.529C144.541 129.54 145.156 123.122 145.583 118.684C145.799 116.472 145.983 114.754 146.083 113.588C146.143 113.009 146.186 112.565 146.218 112.262C146.25 111.958 146.27 111.815 146.27 111.815C146.27 111.815 146.27 111.966 146.238 112.266C146.206 112.565 146.174 113.009 146.123 113.588C146.019 114.758 145.863 116.476 145.663 118.692C145.264 123.13 144.657 129.56 143.918 137.541V137.768L143.802 137.569L140.079 131.022L140.159 131.062L121.023 133.351L121.103 133.239C121.858 136.087 122.725 139.023 123.604 142.026C124.482 145.03 125.409 148.097 126.4 151.213C127.39 154.328 128.397 157.523 129.515 160.723C130.078 162.32 130.673 163.918 131.396 165.492C132.134 167.058 132.979 168.571 133.924 170.021C135.589 172.661 137.669 175.014 140.083 176.991C141.273 177.939 142.603 178.696 144.026 179.235C144.731 179.487 145.46 179.665 146.202 179.767C146.94 179.859 147.686 179.859 148.423 179.767C148.787 179.722 149.149 179.656 149.506 179.571C149.857 179.463 150.217 179.371 150.556 179.239C150.897 179.111 151.23 178.962 151.555 178.796C151.869 178.619 152.169 178.416 152.449 178.189C153.524 177.228 154.394 176.06 155.005 174.754C156.198 172.215 157.071 169.539 157.606 166.786C158.612 161.691 159.24 156.528 159.487 151.34C159.774 146.472 159.834 141.922 159.806 137.76C159.786 135.687 159.639 133.714 159.531 131.849C159.423 129.984 159.287 128.226 159.179 126.581C158.94 123.294 158.736 120.462 158.564 118.145C158.393 115.829 158.261 114.035 158.165 112.813C158.121 112.206 158.085 111.743 158.065 111.427C158.045 111.112 158.053 110.968 158.053 110.968Z" fill="#FF9A6C"/>
<path d="M143.799 136.866C143.802 136.969 143.795 137.072 143.779 137.174C143.751 137.369 143.739 137.669 143.667 138.04C143.492 139.103 143.225 140.148 142.868 141.164C142.334 142.668 141.685 144.129 140.927 145.533C140.088 147.131 139.073 148.82 138.023 150.606C137.024 152.275 136.122 154.001 135.323 155.774C134.673 157.221 134.176 158.73 133.837 160.28C133.614 161.33 133.499 162.401 133.494 163.475C133.494 163.854 133.514 164.146 133.514 164.346C133.522 164.448 133.522 164.551 133.514 164.653C133.489 164.554 133.475 164.452 133.474 164.35C133.474 164.15 133.41 163.854 133.414 163.475C133.39 162.403 133.484 161.331 133.693 160.28C134.013 158.714 134.5 157.187 135.147 155.726C135.938 153.942 136.839 152.208 137.843 150.534C138.894 148.745 139.912 147.055 140.759 145.473C141.517 144.071 142.169 142.614 142.712 141.116C143.08 140.111 143.367 139.079 143.571 138.028C143.655 137.657 143.683 137.365 143.719 137.166C143.736 137.064 143.763 136.963 143.799 136.866Z" fill="#FF9A6C"/>
<path d="M127.802 107.561C127.279 107.665 118.3 111.815 118.36 125.646C118.408 135.971 121.176 145.876 121.176 145.876L142.808 135.691L127.802 107.561Z" fill="#03CC5E"/>
<path d="M158.053 110.968C158.053 110.968 160.602 108.336 160.602 104.897C160.53 102.55 160.083 100.229 159.279 98.0228C159.279 98.0228 158.852 94.4281 158.581 93.0102L159.743 90.8174C159.743 90.8174 162.914 92.2074 163.441 90.1584L161.576 87.6021C161.158 87.0307 160.56 86.6158 159.879 86.4239L157.083 85.625C156.595 85.4875 156.083 85.4578 155.582 85.5378C155.081 85.6178 154.604 85.8056 154.183 86.0884L150.884 88.3211L152.933 84.0913L156.372 83.3644C156.372 83.3644 161.261 85.4773 162.187 82.7013L158.089 80.3049L150.289 80.4407C150.289 80.4407 148.503 82.6215 148.108 83.2805C147.712 83.9395 146.422 86.2162 146.422 86.2162L144.469 81.1676C144.469 81.1676 144.529 77.9443 144.469 75.2603C144.385 72.2966 142.644 71.3061 140.875 72.2966C140.699 72.3925 139.904 80.3288 140.299 82.1821C140.695 84.0354 144.11 97.7872 144.11 97.7872C144.11 97.7872 145.308 100.919 145.767 101.841C146.435 103.208 146.769 104.714 146.742 106.235C146.822 107.697 146.267 112.226 146.267 112.226" fill="#FFBF9D"/>
<path d="M146.238 112.25C146.238 112.25 146.238 112.162 146.238 111.994C146.238 111.827 146.282 111.563 146.318 111.236C146.386 110.569 146.49 109.582 146.582 108.3C146.645 107.59 146.667 106.876 146.646 106.163C146.643 105.313 146.541 104.465 146.342 103.639C146.234 103.182 146.088 102.734 145.907 102.301C145.699 101.861 145.471 101.398 145.272 100.915C144.872 99.9442 144.473 98.9177 144.038 97.8153C143.474 95.5347 142.839 93.0224 142.188 90.3024C141.853 88.939 141.507 87.5304 141.15 86.0766C140.97 85.3456 140.79 84.6067 140.603 83.8558C140.511 83.4764 140.419 83.1009 140.327 82.7175C140.279 82.5258 140.227 82.338 140.187 82.1423C140.147 81.9466 140.135 81.7429 140.119 81.5392C140.068 79.8975 140.117 78.2541 140.267 76.6185C140.331 75.7797 140.403 74.9329 140.495 74.0742C140.543 73.6468 140.591 73.2194 140.659 72.7841C140.659 72.6762 140.69 72.5684 140.714 72.4566C140.713 72.4286 140.713 72.4006 140.714 72.3727V72.3288V72.3008L140.746 72.2529C140.758 72.2339 140.777 72.2197 140.798 72.2129H140.838L140.914 72.177C141.114 72.0725 141.326 71.992 141.545 71.9373C141.996 71.8159 142.474 71.8439 142.907 72.0172C143.336 72.2085 143.694 72.5299 143.93 72.9359C144.369 73.7539 144.576 74.6766 144.529 75.6039C144.529 77.4359 144.529 79.2998 144.529 81.1957V81.1558C145.148 82.7534 145.811 84.4669 146.482 86.2084H146.294L148.004 83.2407C148.667 82.2582 149.422 81.3515 150.173 80.4169L150.201 80.3809H150.3L151.762 80.353L158.101 80.2491H158.133H158.157L162.255 82.6456L162.327 82.6895L162.283 82.7295C162.194 83.0074 162.047 83.2632 161.852 83.4796C161.656 83.6959 161.416 83.8678 161.148 83.9836C160.621 84.1872 160.054 84.2691 159.491 84.2233C158.403 84.1388 157.336 83.8785 156.332 83.4524H156.391L152.952 84.1793L153.02 84.1274L150.967 88.3572L150.828 88.2334L154.199 85.9807C154.77 85.6184 155.432 85.4246 156.108 85.4215C156.438 85.4233 156.767 85.4676 157.086 85.5533L158.005 85.8129L159.814 86.3242C160.427 86.4796 160.982 86.8083 161.412 87.2708C162.171 88.2374 162.83 89.196 163.513 90.1146L163.537 90.1466V90.1865C163.442 90.5675 163.203 90.8968 162.87 91.1052C162.542 91.2904 162.168 91.379 161.791 91.3608C161.08 91.336 160.379 91.1775 159.727 90.8935L159.822 90.8615C159.423 91.6604 159.024 92.3553 158.66 93.0503V93.0024C158.972 94.7957 159.159 96.4733 159.347 98.023C160.012 99.8563 160.436 101.768 160.609 103.711C160.691 104.497 160.674 105.29 160.557 106.071C160.447 106.72 160.263 107.353 160.01 107.96C159.663 108.79 159.212 109.573 158.668 110.289C158.48 110.533 158.333 110.708 158.229 110.824C158.177 110.883 158.123 110.939 158.065 110.992L158.213 110.812C158.317 110.696 158.456 110.513 158.64 110.269C159.168 109.546 159.608 108.763 159.95 107.936C160.194 107.33 160.37 106.7 160.477 106.055C160.584 105.281 160.596 104.496 160.513 103.719C160.328 101.789 159.897 99.8914 159.231 98.0709C159.036 96.5212 158.832 94.8437 158.524 93.0623V93.0383V93.0144L159.683 90.8216L159.715 90.7617L159.778 90.7896C160.412 91.0569 161.088 91.2084 161.776 91.237C162.122 91.2513 162.466 91.1698 162.77 91.0013C163.067 90.8119 163.28 90.516 163.365 90.1745V90.2464C162.682 89.3318 162.003 88.3532 161.268 87.4186C160.861 86.9805 160.335 86.6697 159.754 86.5239L157.945 86.0166C157.349 85.8068 156.727 85.6791 156.096 85.6372C155.454 85.6408 154.825 85.8249 154.283 86.1684L150.923 88.4251L150.632 88.6208L150.784 88.3053L152.833 84.0715V84.0276H152.881L156.316 83.2966H156.347H156.379C157.37 83.6989 158.42 83.939 159.487 84.0076C160.019 84.0525 160.554 83.9761 161.053 83.7839C161.294 83.6794 161.51 83.5245 161.686 83.3295C161.863 83.1345 161.995 82.9041 162.075 82.6536L162.119 82.7774L158.021 80.3809H158.073L151.734 80.4888L150.272 80.5167L150.352 80.4768C149.609 81.4034 148.843 82.3261 148.199 83.2727C147.62 84.2832 147.049 85.2697 146.494 86.2363L146.386 86.424L146.31 86.2203L144.361 81.1718V81.1518C144.361 79.2586 144.361 77.3946 144.361 75.56C144.41 74.6665 144.212 73.7768 143.79 72.9878C143.577 72.6152 143.251 72.32 142.859 72.145C142.465 71.9877 142.031 71.9625 141.621 72.0731C141.414 72.1231 141.215 72.1983 141.026 72.2968L140.954 72.3327H140.918C140.95 72.4046 140.854 72.2369 140.882 72.2848C140.91 72.3328 140.926 72.3407 140.926 72.3327V72.3647C140.924 72.39 140.924 72.4153 140.926 72.4406C140.902 72.5444 140.886 72.6523 140.87 72.7561C140.806 73.1835 140.758 73.6149 140.71 74.0422C140.615 74.893 140.539 75.7397 140.475 76.5785C140.327 78.205 140.275 79.8387 140.319 81.4713C140.329 81.6656 140.352 81.8591 140.387 82.0505C140.423 82.2422 140.475 82.4499 140.519 82.6256C140.615 83.025 140.706 83.3845 140.798 83.76C140.977 84.5162 141.156 85.2564 141.338 85.9807C141.689 87.4399 142.031 88.8498 142.364 90.2105C143.023 92.9265 143.634 95.4428 144.185 97.7274C144.585 98.8218 144.984 99.8603 145.384 100.827C145.583 101.314 145.803 101.766 146.015 102.217C146.207 102.657 146.363 103.113 146.482 103.579C146.679 104.413 146.777 105.267 146.774 106.123C146.79 106.84 146.763 107.558 146.694 108.272C146.586 109.55 146.474 110.537 146.394 111.204C146.352 111.531 146.32 111.783 146.298 111.959C146.254 112.166 146.238 112.25 146.238 112.25Z" fill="#FF9A6C"/>
<path d="M159.012 86.5357C158.71 86.6057 158.419 86.7145 158.145 86.8592C157.517 87.2775 156.922 87.7421 156.364 88.2492C155.677 88.8163 155.05 89.3196 154.59 89.6751C154.353 89.8856 154.093 90.0691 153.815 90.2223C154.016 89.9776 154.244 89.7565 154.494 89.5632C154.93 89.1638 155.545 88.6566 156.232 88.0854C156.799 87.5705 157.417 87.1154 158.077 86.7274C158.356 86.5539 158.687 86.4859 159.012 86.5357Z" fill="#FF9A6C"/>
<path d="M136.672 117.878C136.728 117.858 138.174 121.844 139.904 126.781C141.633 131.717 142.995 135.732 142.939 135.751C142.883 135.771 141.441 131.785 139.708 126.849C137.974 121.912 136.62 117.878 136.672 117.878Z" fill="#263238"/>
<defs>
<filter id="filter0_d_85_2" x="0" y="0" width="336" height="197" filterUnits="userSpaceOnUse" color-interpolation-filters="sRGB">
<feFlood flood-opacity="0" result="BackgroundImageFix"/>
<feColorMatrix in="SourceAlpha" type="matrix" values="0 0 0 0 0 0 0 0 0 0 0 0 0 0 0 0 0 0 127 0" result="hardAlpha"/>
<feOffset dy="4"/>
<feGaussianBlur stdDeviation="2"/>
<feComposite in2="hardAlpha" operator="out"/>
<feColorMatrix type="matrix" values="0 0 0 0 0 0 0 0 0 0 0 0 0 0 0 0 0 0 0.25 0"/>
<feBlend mode="normal" in2="BackgroundImageFix" result="effect1_dropShadow_85_2"/>
<feBlend mode="normal" in="SourceGraphic" in2="effect1_dropShadow_85_2" result="shape"/>
</filter>
<linearGradient id="paint0_linear_85_2" x1="168" y1="0" x2="168" y2="189" gradientUnits="userSpaceOnUse">
<stop stop-color="#011F2B"/>
<stop offset="1" stop-color="#023430"/>
</linearGradient>
</defs>
</svg>
